<?xml version="1.0" standalone="no"?>
<!DOCTYPE svg PUBLIC "-//W3C//DTD SVG 20010904//EN"
 "http://www.w3.org/TR/2001/REC-SVG-20010904/DTD/svg10.dtd">
<svg version="1.0" xmlns="http://www.w3.org/2000/svg"
 width="770.000000pt" height="878.000000pt" viewBox="0 0 770.000000 878.000000"
 preserveAspectRatio="xMidYMid meet">

<g transform="translate(0.000000,878.000000) scale(0.100000,-0.100000)"
fill="#000000" stroke="none">
<path d="M3677 8759 c-81 -12 -180 -43 -262 -82 -39 -19 -347 -194 -685 -389
-338 -195 -1069 -617 -1625 -938 -556 -320 -1027 -593 -1048 -606 -80 -52 -72
-109 21 -163 541 -313 876 -501 886 -497 18 8 3197 2594 3199 2603 3 13 -118
52 -211 68 -91 16 -183 17 -275 4z"/>
<path d="M1872 3489 l3 -2054 28 -89 c57 -184 158 -337 293 -448 95 -78 1496
-888 1536 -888 15 0 37 9 48 20 20 20 20 26 18 2028 l-3 2007 -28 88 c-62 198
-173 359 -327 474 -30 23 -377 227 -770 453 -393 227 -734 424 -758 437 l-42
25 2 -2053z"/>
</g>
</svg>
