<?xml version="1.0" standalone="no"?>
<!DOCTYPE svg PUBLIC "-//W3C//DTD SVG 20010904//EN"
 "http://www.w3.org/TR/2001/REC-SVG-20010904/DTD/svg10.dtd">
<svg version="1.0" xmlns="http://www.w3.org/2000/svg"
 width="770.000000pt" height="878.000000pt" viewBox="0 0 770.000000 878.000000"
 preserveAspectRatio="xMidYMid meet">

<g transform="translate(0.000000,878.000000) scale(0.100000,-0.100000)"
fill="#000000" stroke="none">
<path d="M3677 8759 c-124 -18 -257 -70 -408 -160 -30 -17 -184 -107 -344
-199 -1380 -795 -2837 -1636 -2868 -1656 -88 -57 -74 -109 51 -180 601 -346
860 -494 868 -494 2 0 0 9 -6 19 -15 29 -13 31 30 31 33 0 40 3 40 19 0 12 12
25 30 33 17 7 30 21 30 30 0 10 7 18 16 18 18 0 37 17 47 43 3 9 11 17 17 17
14 0 34 20 43 43 4 10 17 17 32 17 14 0 25 5 25 10 0 6 14 10 30 10 23 0 30 4
30 20 0 11 5 20 10 20 6 0 10 7 10 16 0 26 26 44 64 44 20 0 36 5 36 10 0 6 9
10 20 10 13 0 20 7 20 20 0 13 7 20 20 20 13 0 20 7 20 20 0 16 7 20 30 20 27
0 30 3 30 30 0 27 3 30 30 30 27 0 30 3 30 30 0 23 4 30 20 30 16 0 20 7 20
34 0 19 5 38 10 41 6 3 10 -3 10 -14 0 -18 6 -21 50 -21 49 0 50 1 50 30 0 23
4 30 20 30 16 0 20 7 20 30 0 23 4 30 20 30 11 0 20 5 20 10 0 6 9 10 20 10
11 0 20 5 20 10 0 6 8 10 18 10 23 0 42 19 42 42 0 14 8 18 40 18 38 0 40 2
40 30 0 23 4 30 20 30 13 0 20 7 20 20 0 11 5 20 10 20 6 0 10 9 10 20 0 13 7
20 20 20 11 0 20 5 20 10 0 6 14 10 30 10 27 0 30 3 30 30 0 27 3 30 30 30 20
0 30 5 30 15 0 21 59 74 89 81 44 10 71 27 71 46 0 11 7 18 20 18 13 0 20 7
20 20 0 17 7 20 48 20 43 0 48 3 60 30 8 18 21 30 33 30 14 0 19 7 19 26 0 31
25 53 58 54 12 0 22 5 22 10 0 6 9 10 20 10 16 0 20 7 20 30 0 23 4 30 20 30
16 0 20 7 20 30 0 23 4 30 20 30 11 0 20 5 20 10 0 6 9 10 20 10 11 0 20 5 20
10 0 6 9 10 20 10 13 0 20 7 20 20 0 16 7 20 30 20 17 0 30 5 30 10 0 6 -4 10
-10 10 -5 0 -10 5 -10 10 0 6 14 10 30 10 21 0 30 5 30 16 0 23 25 44 54 44
22 0 26 4 26 30 0 27 3 30 30 30 17 0 30 5 30 10 0 6 7 10 15 10 9 0 25 9 37
20 12 11 28 20 35 20 7 0 13 9 13 20 0 17 7 20 40 20 38 0 40 2 40 30 0 20 5
30 15 30 27 0 85 63 85 92 0 24 4 28 30 28 23 0 30 4 30 20 0 13 7 20 20 20
11 0 20 5 20 10 0 6 14 10 30 10 27 0 30 3 30 30 0 23 4 30 20 30 11 0 20 5
20 10 0 6 9 10 20 10 11 0 20 5 20 10 0 6 8 10 19 10 10 0 29 13 42 30 14 18
33 30 47 30 27 0 52 21 52 44 0 9 8 16 20 16 11 0 20 5 20 10 0 6 -9 10 -20
10 -11 0 -20 5 -20 10 0 6 9 10 20 10 13 0 20 7 20 20 0 17 7 20 40 20 22 0
40 5 40 10 0 6 7 10 16 10 9 0 30 14 46 30 15 17 35 30 43 30 8 0 15 9 15 20
0 13 7 20 20 20 16 0 20 7 20 34 0 33 -1 33 -72 54 -139 41 -260 50 -391 31z"/>
<path d="M1055 6070 c-4 -6 -3 -16 3 -22 6 -6 12 -6 17 2 4 6 3 16 -3 22 -6 6
-12 6 -17 -2z"/>
<path d="M1872 3489 l3 -2054 28 -89 c57 -184 158 -337 293 -448 95 -78 1496
-888 1536 -888 15 0 37 9 48 20 20 20 20 26 18 2028 l-3 2007 -28 88 c-62 198
-173 359 -327 474 -30 23 -377 227 -770 453 -393 227 -734 424 -758 437 l-42
25 2 -2053z"/>
</g>
</svg>
