<?xml version="1.0" standalone="yes"?>
<svg xmlns="http://www.w3.org/2000/svg" width="646" height="194">
<path style="fill:#ffffff; stroke:none;" d="M0 3L1 3L3 1C0.860287 -0.117752 0.473247 0.749191 0 3z"/>
<path style="fill:#747172; stroke:none;" d="M3 0L4 1L3 0z"/>
<path style="fill:#4c494a; stroke:none;" d="M4 0L5 1L4 0z"/>
<path style="fill:#232021; stroke:none;" d="M5.02855 0.970673C-3.23239 2.79216 -0.984968 30.4619 0.228395 36.9954C0.832154 40.2464 3.21071 43.313 6.89506 42.6234C10.9312 41.868 10.9511 37.2271 10.9961 34C11.119 25.1976 11.8826 15.7507 10.8912 7.00386C10.5447 3.94682 8.80378 0.13826 5.02855 0.970673z"/>
<path style="fill:#747172; stroke:none;" d="M7 0L8 1L7 0z"/>
<path style="fill:#b5b4b4; stroke:none;" d="M8 0L11 3L8 0z"/>
<path style="fill:#ffffff; stroke:none;" d="M9 0C13.4031 8.75983 17.4778 50.4565 0 41L0 194L87 194L87 193C82.3145 188 84 179.441 84 173L84 124C84 118.978 81.6636 105.524 89.0401 104.582C98.2558 103.404 96 119.814 96 125L96 169C96 177.693 96.9928 186.056 93 194L109 194L109 193C104.315 188 106 179.441 106 173L106 124C106 118.977 103.664 105.527 111.039 104.582C120.092 103.421 118 119.904 118 125C118 145.201 123.608 175.555 115 194L646 194L646 79L631 80C631 90.9832 631.329 102.023 630.985 113C630.886 116.138 629.94 122.226 625.428 121.685C621.042 121.159 621.023 115.211 621.001 112C620.927 101.334 621 90.6658 621 80C617.189 80 597.615 77.0355 610.048 71.8935C619.02 68.1828 637.007 70.1491 646 73L646 0L201 0C205.911 9.77013 204.146 22.2678 203.996 33C203.943 36.8208 203.222 43.3642 197.989 43.3642C192.582 43.3642 192.028 36.92 192.001 33C191.928 22.4413 189.798 9.45634 195 0L180 0C188.598 17.1059 183 46.998 183 66C183 70.9938 185.131 85.1327 177 85.1327C168.869 85.1327 171 70.9938 171 66L171 24C171 15.6767 169.882 7.48528 174 0L30 0C38.2913 17.767 33 46.5571 33 66C33 70.8427 34.5555 85.8101 26.0147 84.8241C18.7638 83.9869 21 70.8571 21 66L21 20C21 13.7633 19.4627 5.84227 24 1L9 0z"/>
<path style="fill:#747172; stroke:none;" d="M24 0L25 1L24 0z"/>
<path style="fill:#4c494a; stroke:none;" d="M25 0L26 1L25 0z"/>
<path style="fill:#232021; stroke:none;" d="M26.0285 0.916656C19.17 1.53578 21 12.3809 21 17L21 68C21 72.5084 19.2633 85.3292 26.9961 84.534C33.7108 83.8434 32 73.553 32 69L32 18C32 13.2479 34.0343 0.19397 26.0285 0.916656z"/>
<path style="fill:#4c494a; stroke:none;" d="M27 0L28 1L27 0z"/>
<path style="fill:#747172; stroke:none;" d="M28 0L29 1L28 0z"/>
<path style="fill:#b5b4b4; stroke:none;" d="M29 0L30 1L29 0M174 0L175 1L174 0z"/>
<path style="fill:#4c494a; stroke:none;" d="M175 0L176 1L175 0z"/>
<path style="fill:#232021; stroke:none;" d="M176.054 0.970673C170.135 2.29321 172 12.6636 172 17L172 68C172 72.5087 169.835 85.9575 177.896 84.4576C183.968 83.3277 182 72.3525 182 68L182 17C182 12.8484 183.834 -0.767685 176.054 0.970673z"/>
<path style="fill:#4c494a; stroke:none;" d="M178 0L179 1L178 0z"/>
<path style="fill:#b5b4b4; stroke:none;" d="M179 0L180 1L179 0M195 0L196 1L195 0z"/>
<path style="fill:#4c494a; stroke:none;" d="M196 0L197 1L196 0z"/>
<path style="fill:#232021; stroke:none;" d="M197.054 0.970673C192.931 1.89188 193.023 6.70235 193.001 10C192.961 15.8388 189.506 44.351 198.946 42.6234C203.124 41.8589 202.976 37.3199 202.999 34C203.06 25.1197 203.722 15.8486 202.941 7.00386C202.665 3.87407 200.901 0.111176 197.054 0.970673z"/>
<path style="fill:#4c494a; stroke:none;" d="M199 0L200 1L199 0z"/>
<path style="fill:#b5b4b4; stroke:none;" d="M200 0L201 1L200 0M1 1L2 2L1 1z"/>
<path style="fill:#4c494a; stroke:none;" d="M2 1L3 2L2 1z"/>
<path style="fill:#b5b4b4; stroke:none;" d="M22 1L23 2L22 1M30 1L31 2L30 1z"/>
<path style="fill:#4c494a; stroke:none;" d="M173 1L174 2L173 1z"/>
<path style="fill:#747172; stroke:none;" d="M180 1L181 2L180 1z"/>
<path style="fill:#4c494a; stroke:none;" d="M194 1L195 2L194 1z"/>
<path style="fill:#747172; stroke:none;" d="M201 1L202 2L201 1z"/>
<path style="fill:#4c494a; stroke:none;" d="M1 2L2 3L1 2z"/>
<path style="fill:#b5b4b4; stroke:none;" d="M31 2L32 3L31 2z"/>
<path style="fill:#4c494a; stroke:none;" d="M172 2L173 3L172 2z"/>
<path style="fill:#747172; stroke:none;" d="M181 2L182 3L181 2z"/>
<path style="fill:#4c494a; stroke:none;" d="M193 2L194 3L193 2z"/>
<path style="fill:#747172; stroke:none;" d="M202 2L203 3L202 2M0 3L1 4L0 3z"/>
<path style="fill:#4c494a; stroke:none;" d="M10 3L11 4L10 3z"/>
<path style="fill:#747172; stroke:none;" d="M21 3L22 4L21 3z"/>
<path style="fill:#4c494a; stroke:none;" d="M31 3L32 4L31 3z"/>
<path style="fill:#b5b4b4; stroke:none;" d="M171 3L172 4L171 3M192 3L193 4L192 3z"/>
<path style="fill:#4c494a; stroke:none;" d="M0 4L1 5L0 4z"/>
<path style="fill:#b5b4b4; stroke:none;" d="M11 4L11 39L12 39L11 4z"/>
<path style="fill:#747172; stroke:none;" d="M171.333 4.66667L171.667 5.33333L171.333 4.66667z"/>
<path style="fill:#b5b4b4; stroke:none;" d="M182 4L183 5L182 4z"/>
<path style="fill:#747172; stroke:none;" d="M192.333 4.66667L192.667 5.33333L192.333 4.66667z"/>
<path style="fill:#b5b4b4; stroke:none;" d="M203 4L204 5L203 4M32 5L32 80L33 80L33 28L32 5z"/>
<path style="fill:#747172; stroke:none;" d="M182 5L182 81L183 81L183 29L182 5M203 5L203 39L204 39L203 5z"/>
<path style="fill:#4c494a; stroke:none;" d="M171 6L171 80L172 80L172 29L171 6M192 6L192 38L193 38L192 6z"/>
<path style="fill:#b5b4b4; stroke:none;" d="M45 30L46 31L45 30z"/>
<path style="fill:#747172; stroke:none;" d="M46 30L46 31L49 31L46 30z"/>
<path style="fill:#b5b4b4; stroke:none;" d="M49 30L50 31L49 30M153 30L154 31L153 30z"/>
<path style="fill:#747172; stroke:none;" d="M154 30L154 31L158 31L154 30z"/>
<path style="fill:#4c494a; stroke:none;" d="M44 31L43 33L44 31z"/>
<path style="fill:#232021; stroke:none;" d="M45.2276 32.0432C39.8358 35.153 42 46.8071 42 52L42 112C42 116.584 40.4263 133.135 49.7724 129.238C55.3343 126.92 53 113.808 53 109L53 48C53 43.8074 54.4006 26.7526 45.2276 32.0432z"/>
<path style="fill:#4c494a; stroke:none;" d="M50 31L51 32L50 31z"/>
<path style="fill:#b5b4b4; stroke:none;" d="M51 31L52 32L51 31z"/>
<path style="fill:#747172; stroke:none;" d="M152 31L151 33L152 31z"/>
<path style="fill:#232021; stroke:none;" d="M153.318 32.0324C148.805 34.9384 151 47.3348 151 52L151 113C151 116.962 149.594 134.82 158.682 128.968C163.195 126.062 161 113.665 161 109L161 48C161 44.0379 162.406 26.1796 153.318 32.0324z"/>
<path style="fill:#b5b4b4; stroke:none;" d="M159 31L160 32L159 31M52 32L53 33L52 32M160 32L161 33L160 32M42 33L43 34L42 33z"/>
<path style="fill:#4c494a; stroke:none;" d="M52 33L53 34L52 33M42 34L43 35L42 34z"/>
<path style="fill:#747172; stroke:none;" d="M150 34L150 127L151 127L151 63L150 34z"/>
<path style="fill:#b5b4b4; stroke:none;" d="M161 34L162 35L161 34M53 35L53 126L54 126L54 63L53 35z"/>
<path style="fill:#747172; stroke:none;" d="M161 35L161 126L162 126L162 63L161 35M192.333 38.6667L192.667 39.3333L192.333 38.6667z"/>
<path style="fill:#4c494a; stroke:none;" d="M0 39L1 40L0 39z"/>
<path style="fill:#b5b4b4; stroke:none;" d="M203 39L204 40L203 39M0 40L1 41L0 40z"/>
<path style="fill:#4c494a; stroke:none;" d="M10 40L11 41L10 40z"/>
<path style="fill:#b5b4b4; stroke:none;" d="M192 40L193 41L192 40z"/>
<path style="fill:#4c494a; stroke:none;" d="M1 41L2 42L1 41z"/>
<path style="fill:#b5b4b4; stroke:none;" d="M10 41L11 42L10 41z"/>
<path style="fill:#747172; stroke:none;" d="M193 41L194 42L193 41z"/>
<path style="fill:#b5b4b4; stroke:none;" d="M202 41L203 42L202 41z"/>
<path style="fill:#4c494a; stroke:none;" d="M2 42L3 43L2 42z"/>
<path style="fill:#b5b4b4; stroke:none;" d="M9 42L10 43L9 42z"/>
<path style="fill:#747172; stroke:none;" d="M194 42L195 43L194 42M201 42L202 43L201 42z"/>
<path style="fill:#b5b4b4; stroke:none;" d="M3 43L4 44L3 43z"/>
<path style="fill:#747172; stroke:none;" d="M4 43L5 44L4 43z"/>
<path style="fill:#4c494a; stroke:none;" d="M5.66667 43.3333L6.33333 43.6667L5.66667 43.3333z"/>
<path style="fill:#747172; stroke:none;" d="M7 43L8 44L7 43z"/>
<path style="fill:#b5b4b4; stroke:none;" d="M195 43L196 44L195 43z"/>
<path style="fill:#747172; stroke:none;" d="M196 43L197 44L196 43z"/>
<path style="fill:#4c494a; stroke:none;" d="M197.667 43.3333L198.333 43.6667L197.667 43.3333z"/>
<path style="fill:#747172; stroke:none;" d="M199 43L200 44L199 43z"/>
<path style="fill:#b5b4b4; stroke:none;" d="M200 43L201 44L200 43z"/>
<path style="fill:#747172; stroke:none;" d="M250 71L249 73L250 71z"/>
<path style="fill:#232021; stroke:none;" d="M269 111C266.19 105.667 264.524 99.7816 262.859 94C261.89 90.6345 260.756 87.3286 259.67 84C258.416 80.1582 249.236 63.8675 249.152 77.0046C249.08 88.2855 257 102.399 260.671 113C261.962 116.73 263.936 122.347 268.971 121.458C273.344 120.685 274.766 115.592 275.997 112C279.209 102.622 289.237 84.9187 287.393 75.1096C285.278 63.8606 277.728 81.5749 276.975 84C275.831 87.6799 274.508 91.3008 273.424 95C271.874 100.295 269.807 105.537 269 111z"/>
<path style="fill:#747172; stroke:none;" d="M254 71L255 72L254 71z"/>
<path style="fill:#b5b4b4; stroke:none;" d="M281 71L282 72L281 71z"/>
<path style="fill:#4c494a; stroke:none;" d="M282 71L283 72L282 71z"/>
<path style="fill:#747172; stroke:none;" d="M285 71L286 72L285 71z"/>
<path style="fill:#b5b4b4; stroke:none;" d="M311 71L312 72L311 71z"/>
<path style="fill:#747172; stroke:none;" d="M312.667 71.3333L313.333 71.6667L312.667 71.3333z"/>
<path style="fill:#4c494a; stroke:none;" d="M314 71L315 72L314 71z"/>
<path style="fill:#232021; stroke:none;" d="M315 71.4437C286.471 75.6977 290.975 125.99 321 121.698C349.394 117.64 344.594 67.0308 315 71.4437z"/>
<path style="fill:#4c494a; stroke:none;" d="M321 71L322 72L321 71z"/>
<path style="fill:#747172; stroke:none;" d="M322 71L323 72L322 71z"/>
<path style="fill:#b5b4b4; stroke:none;" d="M323.667 71.3333L324.333 71.6667L323.667 71.3333z"/>
<path style="fill:#747172; stroke:none;" d="M354 71L355 72L354 71z"/>
<path style="fill:#232021; stroke:none;" d="M355.133 72.2562C351.474 73.6862 352.006 78.8827 352 82C351.979 91.9991 351.948 102.001 352.001 112C352.017 115.023 351.888 122.308 356.935 121.168C361.237 120.197 360.982 114.343 360.999 111C361.054 100.688 361.309 90.3065 360.985 80C360.89 76.9784 359.785 70.4379 355.133 72.2562z"/>
<path style="fill:#4c494a; stroke:none;" d="M357 71L358 72L357 71z"/>
<path style="fill:#747172; stroke:none;" d="M358 71L359 72L358 71z"/>
<path style="fill:#b5b4b4; stroke:none;" d="M388.667 71.3333L389.333 71.6667L388.667 71.3333z"/>
<path style="fill:#747172; stroke:none;" d="M390 71L391 72L390 71z"/>
<path style="fill:#4c494a; stroke:none;" d="M391 71L392 72L391 71z"/>
<path style="fill:#232021; stroke:none;" d="M392 71.4792C361.485 76.2334 370.73 131.416 401 120.891C406.088 119.122 416.994 110.096 411.972 103.608C408.477 99.0933 405.054 106.978 403.502 108.957C398.806 114.943 390.718 116.076 385.649 109.811C378.729 101.259 381.043 76.9838 396 79.2438C401 79.9994 406.244 90.9179 410.685 88.8241C414.496 87.0273 412.006 81.3619 410.347 79.0154C406.328 73.3311 398.855 70.4112 392 71.4792z"/>
<path style="fill:#4c494a; stroke:none;" d="M397.667 71.3333L398.333 71.6667L397.667 71.3333z"/>
<path style="fill:#747172; stroke:none;" d="M399 71L400 72L399 71z"/>
<path style="fill:#b5b4b4; stroke:none;" d="M400 71L401 72L400 71M430 71L430 72L456 72L430 71z"/>
<path style="fill:#747172; stroke:none;" d="M473 71L474 72L473 71z"/>
<path style="fill:#232021; stroke:none;" d="M474.213 72.1366C468.941 74.7391 471 86.2557 471 91C471 97.2145 467.904 115.813 473.514 119.821C477.33 122.548 485.532 121 490 121C493.409 121 499.543 122.116 502.392 119.822C505.238 117.53 502.609 114.602 499.941 114.148C495.04 113.315 484.243 116.5 481.028 111.682C476.664 105.142 480.105 87.7666 479.996 80C479.953 76.9483 479.235 69.6572 474.213 72.1366z"/>
<path style="fill:#747172; stroke:none;" d="M477 71L478 72L477 71z"/>
<path style="fill:#b5b4b4; stroke:none;" d="M478 71L479 72L478 71M525 71L526 72L525 71z"/>
<path style="fill:#747172; stroke:none;" d="M526.667 71.3333L527.333 71.6667L526.667 71.3333z"/>
<path style="fill:#4c494a; stroke:none;" d="M528 71L529 72L528 71z"/>
<path style="fill:#232021; stroke:none;" d="M529 71.4437C499.642 75.8214 504.381 125.59 535 121.71C564.93 117.917 559.871 66.8404 529 71.4437z"/>
<path style="fill:#4c494a; stroke:none;" d="M535.667 71.3333L536.333 71.6667L535.667 71.3333z"/>
<path style="fill:#747172; stroke:none;" d="M537 71L538 72L537 71z"/>
<path style="fill:#b5b4b4; stroke:none;" d="M538 71L539 72L538 71M572 71L572 72L596 72L572 71M610 71L610 72L642 72L610 71z"/>
<path style="fill:#4c494a; stroke:none;" d="M255 72L256 73L255 72z"/>
<path style="fill:#b5b4b4; stroke:none;" d="M280 72L281 73L280 72M308 72L309 73L308 72z"/>
<path style="fill:#747172; stroke:none;" d="M309 72L310 73L309 72z"/>
<path style="fill:#4c494a; stroke:none;" d="M325 72L326 73L325 72z"/>
<path style="fill:#747172; stroke:none;" d="M326 72L327 73L326 72z"/>
<path style="fill:#4c494a; stroke:none;" d="M353 72L354 73L353 72z"/>
<path style="fill:#747172; stroke:none;" d="M359 72L360 73L359 72M386 72L387 73L386 72z"/>
<path style="fill:#4c494a; stroke:none;" d="M387 72L388 73L387 72z"/>
<path style="fill:#747172; stroke:none;" d="M402 72L403 73L402 72M427 72L426 74L427 72z"/>
<path style="fill:#4c494a; stroke:none;" d="M428 72L429 73L428 72z"/>
<path style="fill:#232021; stroke:none;" d="M434 114L434 99C438.122 99 455.845 101.393 456.534 95.9105C457.326 89.6034 437.957 92 434 92L434 79C437.665 79 461.112 81.1437 458.338 74.4144C457.238 71.7469 453.332 72.0365 451 72.0039C445.255 71.9235 432.058 69.628 427.564 73.7423C424.916 76.1663 425.043 80.7203 425.004 84C424.894 93.1731 421.927 109.648 426.434 117.852C429.702 123.802 446.107 121.106 452 120.995C454.502 120.948 458.405 121.01 459.168 117.91C460.675 111.791 437.838 114 434 114z"/>
<path style="fill:#4c494a; stroke:none;" d="M457 72L458 73L457 72z"/>
<path style="fill:#b5b4b4; stroke:none;" d="M458 72L459 73L458 72z"/>
<path style="fill:#4c494a; stroke:none;" d="M472 72L473 73L472 72z"/>
<path style="fill:#b5b4b4; stroke:none;" d="M479 72L480 73L479 72M522 72L523 73L522 72z"/>
<path style="fill:#747172; stroke:none;" d="M523 72L524 73L523 72z"/>
<path style="fill:#4c494a; stroke:none;" d="M540 72L541 73L540 72z"/>
<path style="fill:#b5b4b4; stroke:none;" d="M541 72L542 73L541 72z"/>
<path style="fill:#747172; stroke:none;" d="M569 72L570 73L569 72z"/>
<path style="fill:#232021; stroke:none;" d="M576 99C579.367 99 595.364 101.008 595.364 96C595.364 90.9923 579.367 93 576 93L576 79C579.497 79 601.105 81.1264 598.338 74.4144C597.238 71.7468 593.332 72.0365 591 72.0039C585.359 71.925 569.56 69.2028 567.434 76.1088C564.536 85.5164 566.999 99.1659 567 109C567 112.506 566.134 117.893 569.314 120.353C577.755 126.881 576 102.423 576 99z"/>
<path style="fill:#4c494a; stroke:none;" d="M597 72L598 73L597 72z"/>
<path style="fill:#b5b4b4; stroke:none;" d="M598 72L599 73L598 72M607 72L608 73L607 72z"/>
<path style="fill:#232021; stroke:none;" d="M621 80C621 90.6552 620.732 101.349 621.015 112C621.099 115.179 621.525 121.364 625.996 121.364C630.545 121.364 629.994 114.992 630 112L630 80C632.561 80 653.432 77.7881 642.768 72.7423C636.487 69.7702 624.873 71.9996 618 72C615.404 72.0002 600.514 73.4984 608.323 78.821C611.546 81.018 617.291 80 621 80z"/>
<path style="fill:#4c494a; stroke:none;" d="M643 72L644 73L643 72z"/>
<path style="fill:#b5b4b4; stroke:none;" d="M644 72L645 73L644 72M248 73L249 74L248 73M256 73L257 74L256 73z"/>
<path style="fill:#747172; stroke:none;" d="M287 73L288 74L287 73z"/>
<path style="fill:#b5b4b4; stroke:none;" d="M306 73L307 74L306 73z"/>
<path style="fill:#4c494a; stroke:none;" d="M307 73L308 74L307 73z"/>
<path style="fill:#747172; stroke:none;" d="M328 73L329 74L328 73M352 73L353 74L352 73z"/>
<path style="fill:#b5b4b4; stroke:none;" d="M360 73L361 74L360 73z"/>
<path style="fill:#747172; stroke:none;" d="M384 73L385 74L384 73M404 73L405 74L404 73z"/>
<path style="fill:#b5b4b4; stroke:none;" d="M471 73L472 74L471 73z"/>
<path style="fill:#4c494a; stroke:none;" d="M479 73L480 74L479 73z"/>
<path style="fill:#b5b4b4; stroke:none;" d="M520 73L521 74L520 73z"/>
<path style="fill:#4c494a; stroke:none;" d="M521 73L522 74L521 73z"/>
<path style="fill:#747172; stroke:none;" d="M543 73L544 74L543 73z"/>
<path style="fill:#b5b4b4; stroke:none;" d="M599 73L600 74L599 73z"/>
<path style="fill:#747172; stroke:none;" d="M606 73L607 74L606 73z"/>
<path style="fill:#b5b4b4; stroke:none;" d="M645 73L646 74L645 73z"/>
<path style="fill:#4c494a; stroke:none;" d="M248 74L248 77L249 77L248 74M256 74L257 75L256 74z"/>
<path style="fill:#b5b4b4; stroke:none;" d="M279 74L280 75L279 74z"/>
<path style="fill:#747172; stroke:none;" d="M305 74L306 75L305 74z"/>
<path style="fill:#b5b4b4; stroke:none;" d="M330 74L331 75L330 74z"/>
<path style="fill:#747172; stroke:none;" d="M360 74L361 75L360 74z"/>
<path style="fill:#b5b4b4; stroke:none;" d="M382 74L383 75L382 74M406 74L407 75L406 74M425 74L426 75L425 74M459 74L460 75L459 74z"/>
<path style="fill:#4c494a; stroke:none;" d="M471 74L472 75L471 74z"/>
<path style="fill:#b5b4b4; stroke:none;" d="M480.333 74.6667L480.667 75.3333L480.333 74.6667M518 74L519 75L518 74z"/>
<path style="fill:#4c494a; stroke:none;" d="M519 74L520 75L519 74z"/>
<path style="fill:#b5b4b4; stroke:none;" d="M545 74L546 75L545 74z"/>
<path style="fill:#747172; stroke:none;" d="M567 74L568 75L567 74M599 74L600 75L599 74z"/>
<path style="fill:#4c494a; stroke:none;" d="M645 74L646 75L645 74z"/>
<path style="fill:#b5b4b4; stroke:none;" d="M257 75L258 76L257 75z"/>
<path style="fill:#747172; stroke:none;" d="M279 75L280 76L279 75z"/>
<path style="fill:#b5b4b4; stroke:none;" d="M288 75L289 76L288 75M303 75L304 76L303 75z"/>
<path style="fill:#4c494a; stroke:none;" d="M304 75L305 76L304 75M331 75L332 76L331 75z"/>
<path style="fill:#b5b4b4; stroke:none;" d="M351 75L351 118L352 118C352 105.781 355.71 86.2256 351 75z"/>
<path style="fill:#747172; stroke:none;" d="M381 75L382 76L381 75M407 75L408 76L407 75M425 75L426 76L425 75M459.333 75.6667L459.667 76.3333L459.333 75.6667z"/>
<path style="fill:#b5b4b4; stroke:none;" d="M517 75L518 76L517 75z"/>
<path style="fill:#747172; stroke:none;" d="M546 75L547 76L546 75z"/>
<path style="fill:#4c494a; stroke:none;" d="M599 75L600 76L599 75z"/>
<path style="fill:#b5b4b4; stroke:none;" d="M605.333 75.6667L605.667 76.3333L605.333 75.6667z"/>
<path style="fill:#747172; stroke:none;" d="M257 76L258 77L257 76z"/>
<path style="fill:#b5b4b4; stroke:none;" d="M302 76L303 77L302 76z"/>
<path style="fill:#4c494a; stroke:none;" d="M332 76L333 77L332 76M380 76L381 77L380 76z"/>
<path style="fill:#747172; stroke:none;" d="M408 76L409 77L408 76z"/>
<path style="fill:#4c494a; stroke:none;" d="M425.333 76.6667L425.667 77.3333L425.333 76.6667z"/>
<path style="fill:#747172; stroke:none;" d="M480 76L480 113L481 113C481 102.351 484.111 85.7978 480 76M516 76L517 77L516 76z"/>
<path style="fill:#4c494a; stroke:none;" d="M547 76L548 77L547 76z"/>
<path style="fill:#747172; stroke:none;" d="M599 76L600 77L599 76z"/>
<path style="fill:#b5b4b4; stroke:none;" d="M66 77L67 78L66 77z"/>
<path style="fill:#4c494a; stroke:none;" d="M67.6667 77.3333L68.3333 77.6667L67.6667 77.3333z"/>
<path style="fill:#747172; stroke:none;" d="M69 77L70 78L69 77z"/>
<path style="fill:#b5b4b4; stroke:none;" d="M70 77L71 78L70 77M132 77L133 78L132 77z"/>
<path style="fill:#747172; stroke:none;" d="M133 77L134 78L133 77z"/>
<path style="fill:#4c494a; stroke:none;" d="M134.667 77.3333L135.333 77.6667L134.667 77.3333z"/>
<path style="fill:#747172; stroke:none;" d="M136 77L137 78L136 77z"/>
<path style="fill:#b5b4b4; stroke:none;" d="M137 77L138 78L137 77z"/>
<path style="fill:#747172; stroke:none;" d="M248 77L249 78L248 77z"/>
<path style="fill:#b5b4b4; stroke:none;" d="M278 77L279 78L278 77z"/>
<path style="fill:#4c494a; stroke:none;" d="M287 77L288 78L287 77z"/>
<path style="fill:#b5b4b4; stroke:none;" d="M301 77L302 78L301 77z"/>
<path style="fill:#4c494a; stroke:none;" d="M333 77L334 78L333 77z"/>
<path style="fill:#747172; stroke:none;" d="M379 77L380 78L379 77M409 77L410 78L409 77z"/>
<path style="fill:#b5b4b4; stroke:none;" d="M459 77L460 78L459 77z"/>
<path style="fill:#747172; stroke:none;" d="M515 77L516 78L515 77z"/>
<path style="fill:#4c494a; stroke:none;" d="M548 77L549 78L548 77z"/>
<path style="fill:#b5b4b4; stroke:none;" d="M566 77L566 118L567 118C567 106.304 570.511 87.7497 566 77M599 77L600 78L599 77z"/>
<path style="fill:#747172; stroke:none;" d="M645 77L646 78L645 77z"/>
<path style="fill:#b5b4b4; stroke:none;" d="M64 78L63 80L64 78z"/>
<path style="fill:#232021; stroke:none;" d="M65.4336 79.0324C61.0763 81.9254 63 92.516 63 97L63 151C63 155.171 62.17 169.918 70.7724 164.957C76.0268 161.926 74 151.047 74 146L74 92C73.9997 87.9132 73.5469 73.6457 65.4336 79.0324z"/>
<path style="fill:#4c494a; stroke:none;" d="M71 78L72 79L71 78z"/>
<path style="fill:#747172; stroke:none;" d="M131 78L130 80L131 78z"/>
<path style="fill:#232021; stroke:none;" d="M132.318 79.0324C128.03 81.7936 130 92.6123 130 97L130 152C130 155.956 129.44 170.276 137.682 164.968C141.97 162.206 140 151.388 140 147L140 92C140 88.0441 140.56 73.7241 132.318 79.0324z"/>
<path style="fill:#747172; stroke:none;" d="M138 78L139 79L138 78z"/>
<path style="fill:#b5b4b4; stroke:none;" d="M248 78L249 79L248 78M258 78L259 79L258 78z"/>
<path style="fill:#747172; stroke:none;" d="M278 78L279 79L278 78M287 78L288 79L287 78z"/>
<path style="fill:#4c494a; stroke:none;" d="M334 78L335 79L334 78z"/>
<path style="fill:#747172; stroke:none;" d="M378 78L379 79L378 78M410 78L411 79L410 78z"/>
<path style="fill:#b5b4b4; stroke:none;" d="M458 78L459 79L458 78M514 78L515 79L514 78z"/>
<path style="fill:#4c494a; stroke:none;" d="M549 78L550 79L549 78z"/>
<path style="fill:#747172; stroke:none;" d="M598 78L599 79L598 78z"/>
<path style="fill:#b5b4b4; stroke:none;" d="M606 78L607 79L606 78M645 78L646 79L645 78z"/>
<path style="fill:#4c494a; stroke:none;" d="M72 79L73 80L72 79z"/>
<path style="fill:#747172; stroke:none;" d="M139 79L140 80L139 79M258 79L259 80L258 79z"/>
<path style="fill:#b5b4b4; stroke:none;" d="M287 79L288 80L287 79z"/>
<path style="fill:#4c494a; stroke:none;" d="M300 79L301 80L300 79z"/>
<path style="fill:#747172; stroke:none;" d="M313 79L314 80L313 79z"/>
<path style="fill:#b5b4b4; stroke:none;" d="M314.667 79.3333L315.333 79.6667L314.667 79.3333z"/>
<path style="fill:#ffffff; stroke:none;" d="M316 79.5231C299.406 82.3373 302.089 117.237 320 113.591C335.54 110.428 333.68 76.5248 316 79.5231z"/>
<path style="fill:#b5b4b4; stroke:none;" d="M320 79L321 80L320 79z"/>
<path style="fill:#747172; stroke:none;" d="M321 79L322 80L321 79z"/>
<path style="fill:#4c494a; stroke:none;" d="M322 79L323 80L322 79z"/>
<path style="fill:#747172; stroke:none;" d="M335 79L336 80L335 79z"/>
<path style="fill:#b5b4b4; stroke:none;" d="M377 79L378 80L377 79z"/>
<path style="fill:#747172; stroke:none;" d="M390 79L391 80L390 79z"/>
<path style="fill:#b5b4b4; stroke:none;" d="M391 79L392 80L391 79M397 79L398 80L397 79z"/>
<path style="fill:#747172; stroke:none;" d="M398 79L399 80L398 79z"/>
<path style="fill:#b5b4b4; stroke:none;" d="M411 79L412 80L411 79z"/>
<path style="fill:#747172; stroke:none;" d="M434 79L434 80L456 80L434 79z"/>
<path style="fill:#b5b4b4; stroke:none;" d="M456 79L457 80L456 79M513 79L514 80L513 79z"/>
<path style="fill:#4c494a; stroke:none;" d="M527 79L528 80L527 79z"/>
<path style="fill:#b5b4b4; stroke:none;" d="M528.667 79.3333L529.333 79.6667L528.667 79.3333z"/>
<path style="fill:#ffffff; stroke:none;" d="M530 79.5725C513.455 82.838 515.971 116.654 534 113.645C550.851 110.833 548.61 75.8996 530 79.5725z"/>
<path style="fill:#b5b4b4; stroke:none;" d="M534.667 79.3333L535.333 79.6667L534.667 79.3333z"/>
<path style="fill:#747172; stroke:none;" d="M536 79L537 80L536 79M550 79L551 80L550 79M576 79L576 80L596 80L576 79z"/>
<path style="fill:#b5b4b4; stroke:none;" d="M596 79L597 80L596 79M607 79L608 80L607 79z"/>
<path style="fill:#4c494a; stroke:none;" d="M608 79L609 80L608 79z"/>
<path style="fill:#747172; stroke:none;" d="M643 79L644 80L643 79z"/>
<path style="fill:#4c494a; stroke:none;" d="M63 80L64 81L63 80z"/>
<path style="fill:#b5b4b4; stroke:none;" d="M73 80L74 81L73 80M129 80L130 81L129 80z"/>
<path style="fill:#747172; stroke:none;" d="M171 80L172 81L171 80M249 80L250 81L249 80z"/>
<path style="fill:#4c494a; stroke:none;" d="M258 80L259 81L258 80z"/>
<path style="fill:#b5b4b4; stroke:none;" d="M277 80L278 81L277 80M299 80L300 81L299 80z"/>
<path style="fill:#747172; stroke:none;" d="M311 80L312 81L311 80z"/>
<path style="fill:#b5b4b4; stroke:none;" d="M323 80L324 81L323 80z"/>
<path style="fill:#4c494a; stroke:none;" d="M324 80L325 81L324 80z"/>
<path style="fill:#b5b4b4; stroke:none;" d="M336 80L337 81L336 80z"/>
<path style="fill:#747172; stroke:none;" d="M388 80L389 81L388 80M400 80L401 81L400 80z"/>
<path style="fill:#4c494a; stroke:none;" d="M411 80L412 81L411 80z"/>
<path style="fill:#b5b4b4; stroke:none;" d="M434 80C434 94.8782 442.405 92 455 92L455 91L435 91L434 80z"/>
<path style="fill:#4c494a; stroke:none;" d="M513 80L514 81L513 80z"/>
<path style="fill:#747172; stroke:none;" d="M525 80L526 81L525 80z"/>
<path style="fill:#b5b4b4; stroke:none;" d="M526 80L527 81L526 80z"/>
<path style="fill:#747172; stroke:none;" d="M538 80L539 81L538 80z"/>
<path style="fill:#b5b4b4; stroke:none;" d="M551 80L552 81L551 80M576 80L576 92L577 92L576 80z"/>
<path style="fill:#747172; stroke:none;" d="M630 80L630 118L631 118C631 107.089 634.211 90.0358 630 80z"/>
<path style="fill:#4c494a; stroke:none;" d="M21 81L22 82L21 81M73 81L74 82L73 81z"/>
<path style="fill:#747172; stroke:none;" d="M129 81L129 162L130 162L130 106L129 81z"/>
<path style="fill:#b5b4b4; stroke:none;" d="M140 81L141 82L140 81M171 81L172 82L171 81M182 81L183 82L182 81M249 81L250 82L249 81M259 81L260 82L259 81z"/>
<path style="fill:#747172; stroke:none;" d="M277 81L278 82L277 81M286 81L287 82L286 81z"/>
<path style="fill:#b5b4b4; stroke:none;" d="M310 81L311 82L310 81z"/>
<path style="fill:#747172; stroke:none;" d="M325 81L326 82L325 81z"/>
<path style="fill:#4c494a; stroke:none;" d="M336 81L337 82L336 81z"/>
<path style="fill:#747172; stroke:none;" d="M376 81L377 82L376 81z"/>
<path style="fill:#b5b4b4; stroke:none;" d="M387 81L388 82L387 81z"/>
<path style="fill:#747172; stroke:none;" d="M401 81L402 82L401 81z"/>
<path style="fill:#b5b4b4; stroke:none;" d="M412 81L413 82L412 81z"/>
<path style="fill:#747172; stroke:none;" d="M512 81L513 82L512 81z"/>
<path style="fill:#b5b4b4; stroke:none;" d="M524 81L525 82L524 81M539 81L540 82L539 81z"/>
<path style="fill:#4c494a; stroke:none;" d="M540 81L541 82L540 81M551 81L552 82L551 81z"/>
<path style="fill:#b5b4b4; stroke:none;" d="M21 82L22 83L21 82z"/>
<path style="fill:#747172; stroke:none;" d="M31 82L32 83L31 82z"/>
<path style="fill:#b5b4b4; stroke:none;" d="M62 82L62 162L63 162L63 107L62 82z"/>
<path style="fill:#747172; stroke:none;" d="M140 82L140 162L141 162L141 107L140 82z"/>
<path style="fill:#4c494a; stroke:none;" d="M181 82L182 83L181 82z"/>
<path style="fill:#747172; stroke:none;" d="M259 82L260 83L259 82z"/>
<path style="fill:#4c494a; stroke:none;" d="M277 82L278 83L277 82z"/>
<path style="fill:#b5b4b4; stroke:none;" d="M286 82L287 83L286 82z"/>
<path style="fill:#747172; stroke:none;" d="M298 82L299 83L298 82z"/>
<path style="fill:#b5b4b4; stroke:none;" d="M309 82L310 83L309 82z"/>
<path style="fill:#747172; stroke:none;" d="M326 82L327 83L326 82z"/>
<path style="fill:#b5b4b4; stroke:none;" d="M337 82L338 83L337 82M375 82L376 83L375 82M386 82L387 83L386 82z"/>
<path style="fill:#747172; stroke:none;" d="M402 82L403 83L402 82z"/>
<path style="fill:#4c494a; stroke:none;" d="M412 82L413 83L412 82z"/>
<path style="fill:#b5b4b4; stroke:none;" d="M523 82L524 83L523 82z"/>
<path style="fill:#4c494a; stroke:none;" d="M541 82L542 83L541 82z"/>
<path style="fill:#b5b4b4; stroke:none;" d="M552 82L553 83L552 82z"/>
<path style="fill:#747172; stroke:none;" d="M22 83L23 84L22 83z"/>
<path style="fill:#4c494a; stroke:none;" d="M30 83L31 84L30 83z"/>
<path style="fill:#b5b4b4; stroke:none;" d="M172 83L173 84L172 83M181 83L182 84L181 83z"/>
<path style="fill:#747172; stroke:none;" d="M250 83L251 84L250 83z"/>
<path style="fill:#4c494a; stroke:none;" d="M259 83L260 84L259 83z"/>
<path style="fill:#b5b4b4; stroke:none;" d="M276 83L277 84L276 83M308 83L309 84L308 83z"/>
<path style="fill:#4c494a; stroke:none;" d="M327 83L328 84L327 83M337 83L338 84L337 83z"/>
<path style="fill:#747172; stroke:none;" d="M375 83L376 84L375 83M385 83L386 84L385 83M403 83L404 84L403 83M511 83L512 84L511 83z"/>
<path style="fill:#b5b4b4; stroke:none;" d="M522 83L523 84L522 83z"/>
<path style="fill:#4c494a; stroke:none;" d="M552 83L553 84L552 83z"/>
<path style="fill:#747172; stroke:none;" d="M23 84L24 85L23 84M29 84L30 85L29 84z"/>
<path style="fill:#b5b4b4; stroke:none;" d="M173 84L174 85L173 84z"/>
<path style="fill:#4c494a; stroke:none;" d="M174 84L175 85L174 84M179 84L180 85L179 84z"/>
<path style="fill:#b5b4b4; stroke:none;" d="M180 84L181 85L180 84M250 84L251 85L250 84z"/>
<path style="fill:#747172; stroke:none;" d="M276 84L277 85L276 84M285 84L286 85L285 84z"/>
<path style="fill:#b5b4b4; stroke:none;" d="M297 84L298 85L297 84z"/>
<path style="fill:#4c494a; stroke:none;" d="M307 84L308 85L307 84z"/>
<path style="fill:#b5b4b4; stroke:none;" d="M338 84L339 85L338 84z"/>
<path style="fill:#4c494a; stroke:none;" d="M384 84L385 85L384 84z"/>
<path style="fill:#b5b4b4; stroke:none;" d="M413 84L413 87L414 87L413 84z"/>
<path style="fill:#747172; stroke:none;" d="M521 84L522 85L521 84z"/>
<path style="fill:#b5b4b4; stroke:none;" d="M542 84L543 85L542 84M553 84L554 85L553 84M25 85L25 86L28 86L25 85M175 85L175 86L179 86L175 85M260 85L261 86L260 85z"/>
<path style="fill:#4c494a; stroke:none;" d="M276 85L277 86L276 85z"/>
<path style="fill:#b5b4b4; stroke:none;" d="M285 85L286 86L285 85z"/>
<path style="fill:#4c494a; stroke:none;" d="M297 85L298 86L297 85z"/>
<path style="fill:#b5b4b4; stroke:none;" d="M307 85L308 86L307 85M328 85L329 86L328 85z"/>
<path style="fill:#747172; stroke:none;" d="M338 85L339 86L338 85z"/>
<path style="fill:#b5b4b4; stroke:none;" d="M374 85L375 86L374 85M384 85L385 86L384 85z"/>
<path style="fill:#747172; stroke:none;" d="M404 85L405 86L404 85z"/>
<path style="fill:#b5b4b4; stroke:none;" d="M510 85L511 86L510 85z"/>
<path style="fill:#747172; stroke:none;" d="M543 85L544 86L543 85M553 85L554 86L553 85M251 86L252 87L251 86z"/>
<path style="fill:#4c494a; stroke:none;" d="M260 86L261 87L260 86z"/>
<path style="fill:#747172; stroke:none;" d="M306 86L307 87L306 86z"/>
<path style="fill:#4c494a; stroke:none;" d="M338 86L339 87L338 86M374 86L375 87L374 86z"/>
<path style="fill:#747172; stroke:none;" d="M510 86L511 87L510 86M520 86L521 87L520 86z"/>
<path style="fill:#b5b4b4; stroke:none;" d="M543 86L544 87L543 86M251 87L252 88L251 87M275 87L276 88L275 87z"/>
<path style="fill:#747172; stroke:none;" d="M284 87L285 88L284 87z"/>
<path style="fill:#b5b4b4; stroke:none;" d="M296 87L297 88L296 87M306 87L307 88L306 87z"/>
<path style="fill:#747172; stroke:none;" d="M329 87L330 88L329 87M383 87L384 88L383 87z"/>
<path style="fill:#b5b4b4; stroke:none;" d="M405 87L406 88L405 87z"/>
<path style="fill:#4c494a; stroke:none;" d="M510 87L511 88L510 87z"/>
<path style="fill:#b5b4b4; stroke:none;" d="M520 87L521 88L520 87z"/>
<path style="fill:#4c494a; stroke:none;" d="M544 87L545 88L544 87z"/>
<path style="fill:#b5b4b4; stroke:none;" d="M554 87L555 88L554 87M261 88L262 89L261 88z"/>
<path style="fill:#4c494a; stroke:none;" d="M275 88L276 89L275 88z"/>
<path style="fill:#b5b4b4; stroke:none;" d="M284 88L285 89L284 88z"/>
<path style="fill:#747172; stroke:none;" d="M296 88L297 89L296 88z"/>
<path style="fill:#b5b4b4; stroke:none;" d="M329 88L330 89L329 88M339 88L340 89L339 88M373 88L374 89L373 88M383 88L384 89L383 88z"/>
<path style="fill:#4c494a; stroke:none;" d="M406 88L407 89L406 88z"/>
<path style="fill:#747172; stroke:none;" d="M412 88L413 89L412 88z"/>
<path style="fill:#b5b4b4; stroke:none;" d="M509.333 88.6667L509.667 89.3333L509.333 88.6667z"/>
<path style="fill:#4c494a; stroke:none;" d="M519 88L520 89L519 88z"/>
<path style="fill:#b5b4b4; stroke:none;" d="M544 88L545 89L544 88z"/>
<path style="fill:#747172; stroke:none;" d="M554 88L555 89L554 88M252 89L253 90L252 89M261 89L262 90L261 89z"/>
<path style="fill:#4c494a; stroke:none;" d="M283 89L284 90L283 89M296 89L297 90L296 89z"/>
<path style="fill:#747172; stroke:none;" d="M305 89L306 90L305 89M339 89L340 90L339 89M373 89L374 90L373 89z"/>
<path style="fill:#4c494a; stroke:none;" d="M407 89L408 90L407 89z"/>
<path style="fill:#747172; stroke:none;" d="M411 89L412 90L411 89M519 89L520 90L519 89z"/>
<path style="fill:#4c494a; stroke:none;" d="M554 89L555 90L554 89z"/>
<path style="fill:#b5b4b4; stroke:none;" d="M252 90L253 91L252 90M274 90L275 91L274 90z"/>
<path style="fill:#747172; stroke:none;" d="M283 90L284 91L283 90z"/>
<path style="fill:#b5b4b4; stroke:none;" d="M305.333 90.6667L305.667 91.3333L305.333 90.6667z"/>
<path style="fill:#4c494a; stroke:none;" d="M330 90L331 91L330 90M339 90L340 91L339 90M373 90L374 91L373 90M382 90L383 91L382 90z"/>
<path style="fill:#b5b4b4; stroke:none;" d="M409 90L410 91L409 90z"/>
<path style="fill:#747172; stroke:none;" d="M509 90L510 91L509 90z"/>
<path style="fill:#b5b4b4; stroke:none;" d="M519.333 90.6667L519.667 91.3333L519.333 90.6667M262 91L263 92L262 91z"/>
<path style="fill:#747172; stroke:none;" d="M274 91L275 92L274 91z"/>
<path style="fill:#b5b4b4; stroke:none;" d="M283 91L284 92L283 91M295 91L295 96L296 96L295 91z"/>
<path style="fill:#747172; stroke:none;" d="M330 91L331 92L330 91M382 91L383 92L382 91M434 91L435 92L434 91z"/>
<path style="fill:#4c494a; stroke:none;" d="M509.333 91.6667L509.667 92.3333L509.333 91.6667z"/>
<path style="fill:#747172; stroke:none;" d="M545.333 91.6667L545.667 92.3333L545.333 91.6667M253 92L254 93L253 92M262 92L263 93L262 92z"/>
<path style="fill:#4c494a; stroke:none;" d="M282 92L283 93L282 92z"/>
<path style="fill:#b5b4b4; stroke:none;" d="M330 92L330 101L331 101L330 92M382 92L382 97L383 97L382 92M456 92L457 93L456 92M555 92L555 101L556 101L555 92z"/>
<path style="fill:#4c494a; stroke:none;" d="M576 92L576 93L593 93L576 92z"/>
<path style="fill:#747172; stroke:none;" d="M593 92L594 93L593 92z"/>
<path style="fill:#b5b4b4; stroke:none;" d="M594 92L595 93L594 92M253 93L254 94L253 93M273 93L274 94L273 93z"/>
<path style="fill:#747172; stroke:none;" d="M282 93L283 94L282 93z"/>
<path style="fill:#b5b4b4; stroke:none;" d="M457 93L458 94L457 93z"/>
<path style="fill:#4c494a; stroke:none;" d="M518 93L518 100L519 100L518 93z"/>
<path style="fill:#b5b4b4; stroke:none;" d="M545 93L545 100L546 100L545 93z"/>
<path style="fill:#747172; stroke:none;" d="M595 93L596 94L595 93z"/>
<path style="fill:#b5b4b4; stroke:none;" d="M263 94L264 95L263 94z"/>
<path style="fill:#747172; stroke:none;" d="M273 94L274 95L273 94z"/>
<path style="fill:#b5b4b4; stroke:none;" d="M282 94L283 95L282 94z"/>
<path style="fill:#4c494a; stroke:none;" d="M304 94L304 99L305 99L304 94z"/>
<path style="fill:#b5b4b4; stroke:none;" d="M340 94L340 99L341 99L340 94M372 94L372 99L373 99L372 94z"/>
<path style="fill:#747172; stroke:none;" d="M457 94L458 95L457 94z"/>
<path style="fill:#b5b4b4; stroke:none;" d="M596 94L597 95L596 94z"/>
<path style="fill:#747172; stroke:none;" d="M254 95L255 96L254 95M263 95L264 96L263 95z"/>
<path style="fill:#4c494a; stroke:none;" d="M281 95L282 96L281 95M457 95L458 96L457 95z"/>
<path style="fill:#747172; stroke:none;" d="M596.333 95.6667L596.667 96.3333L596.333 95.6667z"/>
<path style="fill:#b5b4b4; stroke:none;" d="M254 96L255 97L254 96z"/>
<path style="fill:#4c494a; stroke:none;" d="M263 96L264 97L263 96z"/>
<path style="fill:#b5b4b4; stroke:none;" d="M272 96L273 97L272 96z"/>
<path style="fill:#747172; stroke:none;" d="M281 96L282 97L281 96M295 96L296 97L295 96M457 96L458 97L457 96z"/>
<path style="fill:#4c494a; stroke:none;" d="M255 97L256 98L255 97z"/>
<path style="fill:#b5b4b4; stroke:none;" d="M264 97L265 98L264 97z"/>
<path style="fill:#747172; stroke:none;" d="M272 97L273 98L272 97z"/>
<path style="fill:#b5b4b4; stroke:none;" d="M281 97L282 98L281 97M295 97L295 102L296 102L295 97M457 97L458 98L457 97M596 97L597 98L596 97z"/>
<path style="fill:#747172; stroke:none;" d="M255 98L256 99L255 98M264 98L265 99L264 98z"/>
<path style="fill:#4c494a; stroke:none;" d="M272 98L273 99L272 98M280 98L281 99L280 98z"/>
<path style="fill:#b5b4b4; stroke:none;" d="M382 98L382 102L383 102L382 98M456 98L457 99L456 98z"/>
<path style="fill:#747172; stroke:none;" d="M595 98L596 99L595 98z"/>
<path style="fill:#b5b4b4; stroke:none;" d="M255 99L256 100L255 99z"/>
<path style="fill:#4c494a; stroke:none;" d="M264 99L265 100L264 99z"/>
<path style="fill:#b5b4b4; stroke:none;" d="M280 99L281 100L280 99z"/>
<path style="fill:#747172; stroke:none;" d="M434 99L435 100L434 99z"/>
<path style="fill:#b5b4b4; stroke:none;" d="M435 99L435 100L455 100L435 99z"/>
<path style="fill:#4c494a; stroke:none;" d="M576 99L576 100L592 100L576 99z"/>
<path style="fill:#747172; stroke:none;" d="M592.667 99.3333L593.333 99.6667L592.667 99.3333z"/>
<path style="fill:#b5b4b4; stroke:none;" d="M594 99L595 100L594 99z"/>
<path style="fill:#4c494a; stroke:none;" d="M256 100L257 101L256 100z"/>
<path style="fill:#b5b4b4; stroke:none;" d="M271 100L272 101L271 100M434 100L434 113L435 113L434 100z"/>
<path style="fill:#4c494a; stroke:none;" d="M509.333 100.667L509.667 101.333L509.333 100.667z"/>
<path style="fill:#747172; stroke:none;" d="M545.333 100.667L545.667 101.333L545.333 100.667z"/>
<path style="fill:#b5b4b4; stroke:none;" d="M576 100L576 118L577 118L576 100z"/>
<path style="fill:#747172; stroke:none;" d="M256 101L257 102L256 101z"/>
<path style="fill:#b5b4b4; stroke:none;" d="M265 101L266 102L265 101z"/>
<path style="fill:#4c494a; stroke:none;" d="M271 101L272 102L271 101M279 101L280 102L279 101z"/>
<path style="fill:#b5b4b4; stroke:none;" d="M305.333 101.667L305.667 102.333L305.333 101.667z"/>
<path style="fill:#747172; stroke:none;" d="M330 101L331 102L330 101M408 101L408 102L411 102L408 101z"/>
<path style="fill:#b5b4b4; stroke:none;" d="M519.333 101.667L519.667 102.333L519.333 101.667M256 102L257 103L256 102z"/>
<path style="fill:#4c494a; stroke:none;" d="M265 102L266 103L265 102z"/>
<path style="fill:#b5b4b4; stroke:none;" d="M279 102L280 103L279 102z"/>
<path style="fill:#4c494a; stroke:none;" d="M330 102L331 103L330 102M339 102L340 103L339 102M373 102L374 103L373 102z"/>
<path style="fill:#747172; stroke:none;" d="M382 102L383 103L382 102z"/>
<path style="fill:#b5b4b4; stroke:none;" d="M406 102L407 103L406 102M412 102L413 103L412 102z"/>
<path style="fill:#747172; stroke:none;" d="M509 102L510 103L509 102z"/>
<path style="fill:#4c494a; stroke:none;" d="M257 103L258 104L257 103z"/>
<path style="fill:#b5b4b4; stroke:none;" d="M270 103L271 104L270 103z"/>
<path style="fill:#4c494a; stroke:none;" d="M296 103L297 104L296 103z"/>
<path style="fill:#747172; stroke:none;" d="M305 103L306 104L305 103M339 103L340 104L339 103M373 103L374 104L373 103z"/>
<path style="fill:#4c494a; stroke:none;" d="M382 103L383 104L382 103M406 103L407 104L406 103z"/>
<path style="fill:#b5b4b4; stroke:none;" d="M509.333 103.667L509.667 104.333L509.333 103.667z"/>
<path style="fill:#747172; stroke:none;" d="M519 103L520 104L519 103z"/>
<path style="fill:#b5b4b4; stroke:none;" d="M544 103L545 104L544 103z"/>
<path style="fill:#4c494a; stroke:none;" d="M554 103L555 104L554 103z"/>
<path style="fill:#747172; stroke:none;" d="M87 104L88 105L87 104z"/>
<path style="fill:#4c494a; stroke:none;" d="M88 104L89 105L88 104z"/>
<path style="fill:#232021; stroke:none;" d="M89.1003 104.801C82.0248 105.641 84 118.245 84 123L84 177C84 181.652 82.5559 193.133 89.9715 193.133C97.2849 193.133 95 178.487 95 174L95 120C95 115.537 96.6889 103.9 89.1003 104.801z"/>
<path style="fill:#747172; stroke:none;" d="M91 104L92 105L91 104z"/>
<path style="fill:#b5b4b4; stroke:none;" d="M92 104L93 105L92 104z"/>
<path style="fill:#747172; stroke:none;" d="M109 104L110 105L109 104z"/>
<path style="fill:#4c494a; stroke:none;" d="M110 104L111 105L110 104z"/>
<path style="fill:#232021; stroke:none;" d="M111.039 104.801C104.349 105.584 106 116.432 106 121L106 175C106 179.732 103.927 193.815 111.975 193.083C118.83 192.46 117 181.619 117 177L117 123C117 118.325 119.182 103.848 111.039 104.801z"/>
<path style="fill:#747172; stroke:none;" d="M113 104L114 105L113 104z"/>
<path style="fill:#b5b4b4; stroke:none;" d="M114 104L115 105L114 104z"/>
<path style="fill:#747172; stroke:none;" d="M257 104L258 105L257 104z"/>
<path style="fill:#b5b4b4; stroke:none;" d="M266 104L267 105L266 104z"/>
<path style="fill:#747172; stroke:none;" d="M270 104L271 105L270 104z"/>
<path style="fill:#4c494a; stroke:none;" d="M278 104L279 105L278 104z"/>
<path style="fill:#747172; stroke:none;" d="M296 104L297 105L296 104z"/>
<path style="fill:#4c494a; stroke:none;" d="M305 104L306 105L305 104z"/>
<path style="fill:#b5b4b4; stroke:none;" d="M329 104L330 105L329 104M339.333 104.667L339.667 105.333L339.333 104.667M373 104L374 105L373 104M405 104L406 105L405 104M413 104L414 105L413 104z"/>
<path style="fill:#4c494a; stroke:none;" d="M519 104L520 105L519 104z"/>
<path style="fill:#747172; stroke:none;" d="M544 104L545 105L544 104M554 104L555 105L554 104z"/>
<path style="fill:#b5b4b4; stroke:none;" d="M85 105L86 106L85 105z"/>
<path style="fill:#747172; stroke:none;" d="M93 105L94 106L93 105z"/>
<path style="fill:#b5b4b4; stroke:none;" d="M107 105L108 106L107 105M115 105L116 106L115 105M257 105L258 106L257 105z"/>
<path style="fill:#747172; stroke:none;" d="M266 105L267 106L266 105z"/>
<path style="fill:#b5b4b4; stroke:none;" d="M278 105L279 106L278 105M296 105L297 106L296 105M306 105L307 106L306 105z"/>
<path style="fill:#747172; stroke:none;" d="M329 105L330 106L329 105z"/>
<path style="fill:#b5b4b4; stroke:none;" d="M383 105L384 106L383 105z"/>
<path style="fill:#747172; stroke:none;" d="M405 105L406 106L405 105M413 105L414 106L413 105z"/>
<path style="fill:#b5b4b4; stroke:none;" d="M520 105L521 106L520 105z"/>
<path style="fill:#4c494a; stroke:none;" d="M544 105L545 106L544 105z"/>
<path style="fill:#b5b4b4; stroke:none;" d="M554 105L555 106L554 105z"/>
<path style="fill:#4c494a; stroke:none;" d="M85 106L86 107L85 106z"/>
<path style="fill:#b5b4b4; stroke:none;" d="M94 106L95 107L94 106M116 106L117 107L116 106z"/>
<path style="fill:#4c494a; stroke:none;" d="M258 106L259 107L258 106z"/>
<path style="fill:#b5b4b4; stroke:none;" d="M269 106L270 107L269 106z"/>
<path style="fill:#747172; stroke:none;" d="M306 106L307 107L306 106z"/>
<path style="fill:#4c494a; stroke:none;" d="M374 106L375 107L374 106z"/>
<path style="fill:#747172; stroke:none;" d="M383 106L384 107L383 106z"/>
<path style="fill:#b5b4b4; stroke:none;" d="M413 106L413 109L414 109L413 106z"/>
<path style="fill:#747172; stroke:none;" d="M510 106L511 107L510 106M520 106L521 107L520 106z"/>
<path style="fill:#b5b4b4; stroke:none;" d="M543 106L544 107L543 106z"/>
<path style="fill:#747172; stroke:none;" d="M84 107L85 108L84 107M106 107L107 108L106 107z"/>
<path style="fill:#4c494a; stroke:none;" d="M116 107L117 108L116 107z"/>
<path style="fill:#747172; stroke:none;" d="M258 107L259 108L258 107z"/>
<path style="fill:#b5b4b4; stroke:none;" d="M267 107L268 108L267 107z"/>
<path style="fill:#747172; stroke:none;" d="M269 107L270 108L269 107z"/>
<path style="fill:#4c494a; stroke:none;" d="M277 107L278 108L277 107M297 107L298 108L297 107z"/>
<path style="fill:#b5b4b4; stroke:none;" d="M328 107L329 108L328 107z"/>
<path style="fill:#747172; stroke:none;" d="M338 107L339 108L338 107M374 107L375 108L374 107z"/>
<path style="fill:#b5b4b4; stroke:none;" d="M404 107L405 108L404 107M510 107L511 108L510 107z"/>
<path style="fill:#4c494a; stroke:none;" d="M543 107L544 108L543 107M553 107L554 108L553 107M84 108L85 109L84 108z"/>
<path style="fill:#b5b4b4; stroke:none;" d="M95 108L95 190L96 190L96 133L95 108z"/>
<path style="fill:#4c494a; stroke:none;" d="M106 108L107 109L106 108z"/>
<path style="fill:#b5b4b4; stroke:none;" d="M258 108L259 109L258 108z"/>
<path style="fill:#747172; stroke:none;" d="M267 108L268 109L267 108z"/>
<path style="fill:#b5b4b4; stroke:none;" d="M277 108L278 109L277 108z"/>
<path style="fill:#747172; stroke:none;" d="M297 108L298 109L297 108M307 108L308 109L307 108z"/>
<path style="fill:#b5b4b4; stroke:none;" d="M338 108L339 109L338 108M374 108L375 109L374 108z"/>
<path style="fill:#747172; stroke:none;" d="M384 108L385 109L384 108z"/>
<path style="fill:#4c494a; stroke:none;" d="M404 108L405 109L404 108z"/>
<path style="fill:#747172; stroke:none;" d="M521 108L522 109L521 108z"/>
<path style="fill:#b5b4b4; stroke:none;" d="M542 108L543 109L542 108M553 108L554 109L553 108M117 109L117 189L118 189L118 134L117 109z"/>
<path style="fill:#4c494a; stroke:none;" d="M259 109L260 110L259 109z"/>
<path style="fill:#b5b4b4; stroke:none;" d="M268 109L269 110L268 109M308 109L309 110L308 109z"/>
<path style="fill:#747172; stroke:none;" d="M327 109L328 110L327 109z"/>
<path style="fill:#4c494a; stroke:none;" d="M337 109L338 110L337 109M375 109L376 110L375 109z"/>
<path style="fill:#b5b4b4; stroke:none;" d="M385 109L386 110L385 109z"/>
<path style="fill:#747172; stroke:none;" d="M403 109L404 110L403 109z"/>
<path style="fill:#4c494a; stroke:none;" d="M412 109L413 110L412 109z"/>
<path style="fill:#747172; stroke:none;" d="M511 109L512 110L511 109z"/>
<path style="fill:#b5b4b4; stroke:none;" d="M522 109L523 110L522 109z"/>
<path style="fill:#747172; stroke:none;" d="M259 110L260 111L259 110z"/>
<path style="fill:#4c494a; stroke:none;" d="M268 110L269 111L268 110z"/>
<path style="fill:#747172; stroke:none;" d="M276 110L277 111L276 110M298 110L299 111L298 110z"/>
<path style="fill:#b5b4b4; stroke:none;" d="M309 110L310 111L309 110z"/>
<path style="fill:#747172; stroke:none;" d="M326 110L327 111L326 110z"/>
<path style="fill:#b5b4b4; stroke:none;" d="M337 110L338 111L337 110M375 110L376 111L375 110z"/>
<path style="fill:#4c494a; stroke:none;" d="M385 110L386 111L385 110z"/>
<path style="fill:#b5b4b4; stroke:none;" d="M402 110L403 111L402 110z"/>
<path style="fill:#747172; stroke:none;" d="M412 110L413 111L412 110z"/>
<path style="fill:#b5b4b4; stroke:none;" d="M523 110L524 111L523 110z"/>
<path style="fill:#4c494a; stroke:none;" d="M541 110L542 111L541 110z"/>
<path style="fill:#b5b4b4; stroke:none;" d="M552 110L553 111L552 110M276 111L277 112L276 111M298 111L299 112L298 111M310 111L311 112L310 111z"/>
<path style="fill:#747172; stroke:none;" d="M325 111L326 112L325 111z"/>
<path style="fill:#4c494a; stroke:none;" d="M336 111L337 112L336 111M376 111L377 112L376 111M386 111L387 112L386 111z"/>
<path style="fill:#b5b4b4; stroke:none;" d="M401 111L402 112L401 111z"/>
<path style="fill:#747172; stroke:none;" d="M512 111L513 112L512 111z"/>
<path style="fill:#b5b4b4; stroke:none;" d="M524 111L525 112L524 111M539 111L540 112L539 111z"/>
<path style="fill:#4c494a; stroke:none;" d="M540 111L541 112L540 111M551 111L552 112L551 111M260 112L261 113L260 112z"/>
<path style="fill:#747172; stroke:none;" d="M299 112L300 113L299 112M311 112L312 113L311 112z"/>
<path style="fill:#b5b4b4; stroke:none;" d="M323 112L324 113L323 112z"/>
<path style="fill:#4c494a; stroke:none;" d="M324 112L325 113L324 112z"/>
<path style="fill:#b5b4b4; stroke:none;" d="M336 112L337 113L336 112M376 112L377 113L376 112M388 112L389 113L388 112z"/>
<path style="fill:#747172; stroke:none;" d="M400 112L401 113L400 112M411 112L412 113L411 112z"/>
<path style="fill:#4c494a; stroke:none;" d="M513 112L514 113L513 112z"/>
<path style="fill:#747172; stroke:none;" d="M525 112L526 113L525 112z"/>
<path style="fill:#b5b4b4; stroke:none;" d="M538 112L539 113L538 112M551 112L552 113L551 112M260 113L261 114L260 113z"/>
<path style="fill:#747172; stroke:none;" d="M275 113L276 114L275 113z"/>
<path style="fill:#4c494a; stroke:none;" d="M300 113L301 114L300 113M312 113L313 114L312 113z"/>
<path style="fill:#747172; stroke:none;" d="M313 113L314 114L313 113z"/>
<path style="fill:#b5b4b4; stroke:none;" d="M314 113L315 114L314 113M321 113L322 114L321 113z"/>
<path style="fill:#747172; stroke:none;" d="M322 113L323 114L322 113M335 113L336 114L335 113M377 113L378 114L377 113z"/>
<path style="fill:#4c494a; stroke:none;" d="M389 113L390 114L389 113z"/>
<path style="fill:#b5b4b4; stroke:none;" d="M390 113L391 114L390 113M397 113L398 114L397 113z"/>
<path style="fill:#747172; stroke:none;" d="M398 113L399 114L398 113z"/>
<path style="fill:#4c494a; stroke:none;" d="M434 113L435 114L434 113z"/>
<path style="fill:#747172; stroke:none;" d="M435 113L435 114L457 114L435 113z"/>
<path style="fill:#b5b4b4; stroke:none;" d="M457 113L458 114L457 113z"/>
<path style="fill:#4c494a; stroke:none;" d="M481 113L481 114L502 114L481 113z"/>
<path style="fill:#b5b4b4; stroke:none;" d="M502 113L503 114L502 113M513 113L514 114L513 113z"/>
<path style="fill:#747172; stroke:none;" d="M527 113L528 114L527 113z"/>
<path style="fill:#b5b4b4; stroke:none;" d="M528 113L529 114L528 113M535 113L536 114L535 113z"/>
<path style="fill:#747172; stroke:none;" d="M536 113L537 114L536 113M550 113L551 114L550 113z"/>
<path style="fill:#b5b4b4; stroke:none;" d="M275 114L276 115L275 114M300 114L301 115L300 114z"/>
<path style="fill:#4c494a; stroke:none;" d="M316 114L316 115L320 115L316 114M334 114L335 115L334 114M378 114L379 115L378 114M393 114L393 115L396 115L393 114z"/>
<path style="fill:#b5b4b4; stroke:none;" d="M410 114L411 115L410 114M459 114L460 115L459 114z"/>
<path style="fill:#747172; stroke:none;" d="M503 114L504 115L503 114M514 114L515 115L514 114z"/>
<path style="fill:#4c494a; stroke:none;" d="M530 114L530 115L534 115L530 114M549 114L550 115L549 114M261 115L262 116L261 115z"/>
<path style="fill:#b5b4b4; stroke:none;" d="M301 115L302 116L301 115M334 115L335 116L334 115M378 115L379 116L378 115z"/>
<path style="fill:#747172; stroke:none;" d="M409 115L410 116L409 115z"/>
<path style="fill:#4c494a; stroke:none;" d="M425.333 115.667L425.667 116.333L425.333 115.667M459 115L460 116L459 115z"/>
<path style="fill:#b5b4b4; stroke:none;" d="M504 115L505 116L504 115z"/>
<path style="fill:#747172; stroke:none;" d="M515 115L516 116L515 115z"/>
<path style="fill:#b5b4b4; stroke:none;" d="M261 116L262 117L261 116z"/>
<path style="fill:#747172; stroke:none;" d="M274 116L275 117L274 116z"/>
<path style="fill:#b5b4b4; stroke:none;" d="M302 116L303 117L302 116M333 116L334 117L333 116M379 116L380 117L379 116z"/>
<path style="fill:#4c494a; stroke:none;" d="M408 116L409 117L408 116z"/>
<path style="fill:#b5b4b4; stroke:none;" d="M460 116L460 119L461 119L460 116z"/>
<path style="fill:#4c494a; stroke:none;" d="M504.333 116.667L504.667 117.333L504.333 116.667z"/>
<path style="fill:#747172; stroke:none;" d="M516 116L517 117L516 116z"/>
<path style="fill:#b5b4b4; stroke:none;" d="M548 116L549 117L548 116M274 117L275 118L274 117M303 117L304 118L303 117z"/>
<path style="fill:#4c494a; stroke:none;" d="M331 117L332 118L331 117z"/>
<path style="fill:#b5b4b4; stroke:none;" d="M332 117L333 118L332 117M380 117L381 118L380 117z"/>
<path style="fill:#4c494a; stroke:none;" d="M407 117L408 118L407 117z"/>
<path style="fill:#747172; stroke:none;" d="M425 117L426 118L425 117z"/>
<path style="fill:#4c494a; stroke:none;" d="M471 117L472 118L471 117z"/>
<path style="fill:#747172; stroke:none;" d="M517 117L518 118L517 117z"/>
<path style="fill:#4c494a; stroke:none;" d="M546 117L547 118L546 117M621 117L622 118L621 117z"/>
<path style="fill:#747172; stroke:none;" d="M262 118L263 119L262 118z"/>
<path style="fill:#4c494a; stroke:none;" d="M273 118L274 119L273 118z"/>
<path style="fill:#b5b4b4; stroke:none;" d="M304 118L305 119L304 118z"/>
<path style="fill:#4c494a; stroke:none;" d="M305 118L306 119L305 118z"/>
<path style="fill:#747172; stroke:none;" d="M330 118L331 119L330 118z"/>
<path style="fill:#4c494a; stroke:none;" d="M360 118L361 119L360 118M382 118L383 119L382 118z"/>
<path style="fill:#747172; stroke:none;" d="M406 118L407 119L406 118z"/>
<path style="fill:#b5b4b4; stroke:none;" d="M425 118L426 119L425 118z"/>
<path style="fill:#747172; stroke:none;" d="M471 118L472 119L471 118M504 118L505 119L504 118z"/>
<path style="fill:#b5b4b4; stroke:none;" d="M518 118L519 119L518 118z"/>
<path style="fill:#4c494a; stroke:none;" d="M519 118L520 119L519 118z"/>
<path style="fill:#747172; stroke:none;" d="M545 118L546 119L545 118M621 118L622 119L621 118z"/>
<path style="fill:#b5b4b4; stroke:none;" d="M630 118L631 119L630 118z"/>
<path style="fill:#4c494a; stroke:none;" d="M263 119L264 120L263 119z"/>
<path style="fill:#b5b4b4; stroke:none;" d="M273 119L274 120L273 119M306 119L307 120L306 119z"/>
<path style="fill:#4c494a; stroke:none;" d="M328 119L329 120L328 119z"/>
<path style="fill:#b5b4b4; stroke:none;" d="M329 119L330 120L329 119z"/>
<path style="fill:#747172; stroke:none;" d="M352 119L353 120L352 119z"/>
<path style="fill:#b5b4b4; stroke:none;" d="M360 119L361 120L360 119z"/>
<path style="fill:#747172; stroke:none;" d="M383 119L384 120L383 119z"/>
<path style="fill:#4c494a; stroke:none;" d="M404 119L405 120L404 119z"/>
<path style="fill:#b5b4b4; stroke:none;" d="M405 119L406 120L405 119z"/>
<path style="fill:#4c494a; stroke:none;" d="M426 119L427 120L426 119M459 119L460 120L459 119z"/>
<path style="fill:#b5b4b4; stroke:none;" d="M504 119L505 120L504 119z"/>
<path style="fill:#747172; stroke:none;" d="M520 119L521 120L520 119z"/>
<path style="fill:#4c494a; stroke:none;" d="M543 119L544 120L543 119z"/>
<path style="fill:#b5b4b4; stroke:none;" d="M544 119L545 120L544 119z"/>
<path style="fill:#747172; stroke:none;" d="M567 119L568 120L567 119M575 119L576 120L575 119z"/>
<path style="fill:#b5b4b4; stroke:none;" d="M621 119L622 120L621 119M263 120L264 121L263 120M272 120L273 121L272 120M308 120L309 121L308 120z"/>
<path style="fill:#4c494a; stroke:none;" d="M309 120L310 121L309 120M326 120L327 121L326 120z"/>
<path style="fill:#b5b4b4; stroke:none;" d="M327 120L328 121L327 120z"/>
<path style="fill:#4c494a; stroke:none;" d="M359 120L360 121L359 120z"/>
<path style="fill:#747172; stroke:none;" d="M385 120L386 121L385 120z"/>
<path style="fill:#4c494a; stroke:none;" d="M386 120L387 121L386 120M402 120L403 121L402 120z"/>
<path style="fill:#b5b4b4; stroke:none;" d="M403 120L404 121L403 120z"/>
<path style="fill:#747172; stroke:none;" d="M427 120L428 121L427 120z"/>
<path style="fill:#4c494a; stroke:none;" d="M458 120L459 121L458 120z"/>
<path style="fill:#b5b4b4; stroke:none;" d="M472 120L473 121L472 120z"/>
<path style="fill:#4c494a; stroke:none;" d="M473 120L474 121L473 120M502 120L503 121L502 120z"/>
<path style="fill:#b5b4b4; stroke:none;" d="M503 120L504 121L503 120M522 120L523 121L522 120z"/>
<path style="fill:#4c494a; stroke:none;" d="M523 120L524 121L523 120z"/>
<path style="fill:#747172; stroke:none;" d="M541 120L542 121L541 120z"/>
<path style="fill:#b5b4b4; stroke:none;" d="M542 120L543 121L542 120z"/>
<path style="fill:#4c494a; stroke:none;" d="M568 120L569 121L568 120z"/>
<path style="fill:#747172; stroke:none;" d="M622 120L623 121L622 120z"/>
<path style="fill:#b5b4b4; stroke:none;" d="M629 120L630 121L629 120z"/>
<path style="fill:#747172; stroke:none;" d="M265 121L266 122L265 121z"/>
<path style="fill:#4c494a; stroke:none;" d="M270 121L271 122L270 121z"/>
<path style="fill:#b5b4b4; stroke:none;" d="M271 121L272 122L271 121M311 121L312 122L311 121z"/>
<path style="fill:#747172; stroke:none;" d="M312 121L313 122L312 121z"/>
<path style="fill:#4c494a; stroke:none;" d="M313 121L314 122L313 121M322 121L323 122L322 121z"/>
<path style="fill:#747172; stroke:none;" d="M323 121L324 122L323 121z"/>
<path style="fill:#b5b4b4; stroke:none;" d="M324 121L325 122L324 121M353 121L354 122L353 121z"/>
<path style="fill:#4c494a; stroke:none;" d="M354 121L355 122L354 121z"/>
<path style="fill:#747172; stroke:none;" d="M358 121L359 122L358 121z"/>
<path style="fill:#b5b4b4; stroke:none;" d="M387 121L388 122L387 121z"/>
<path style="fill:#747172; stroke:none;" d="M388.667 121.333L389.333 121.667L388.667 121.333z"/>
<path style="fill:#4c494a; stroke:none;" d="M390 121L391 122L390 121M399 121L400 122L399 121z"/>
<path style="fill:#b5b4b4; stroke:none;" d="M400.667 121.333L401.333 121.667L400.667 121.333M429 121L429 122L458 122L429 121M475 121L475 122L502 122L475 121M525 121L526 122L525 121z"/>
<path style="fill:#747172; stroke:none;" d="M526 121L527 122L526 121z"/>
<path style="fill:#4c494a; stroke:none;" d="M527 121L528 122L527 121M536 121L537 122L536 121z"/>
<path style="fill:#747172; stroke:none;" d="M537 121L538 122L537 121z"/>
<path style="fill:#b5b4b4; stroke:none;" d="M538.667 121.333L539.333 121.667L538.667 121.333z"/>
<path style="fill:#747172; stroke:none;" d="M569 121L570 122L569 121M573 121L574 122L573 121M623 121L624 122L623 121z"/>
<path style="fill:#b5b4b4; stroke:none;" d="M628 121L629 122L628 121M268 122L269 123L268 122M316 122L316 123L319 123L316 122M356 122L357 123L356 122M394.667 122.333L395.333 122.667L394.667 122.333M531 122L531 123L534 123L531 122M625 122L626 123L625 122z"/>
<path style="fill:#4c494a; stroke:none;" d="M42 126L43 127L42 126z"/>
<path style="fill:#b5b4b4; stroke:none;" d="M161 126L162 127L161 126M42 127L43 128L42 127z"/>
<path style="fill:#4c494a; stroke:none;" d="M52 127L53 128L52 127M43 128L44 129L43 128z"/>
<path style="fill:#b5b4b4; stroke:none;" d="M52 128L53 129L52 128z"/>
<path style="fill:#747172; stroke:none;" d="M151 128L152 129L151 128z"/>
<path style="fill:#b5b4b4; stroke:none;" d="M160 128L161 129L160 128z"/>
<path style="fill:#4c494a; stroke:none;" d="M44 129L45 130L44 129M50 129L51 130L50 129z"/>
<path style="fill:#b5b4b4; stroke:none;" d="M51 129L52 130L51 129z"/>
<path style="fill:#747172; stroke:none;" d="M152 129L153 130L152 129z"/>
<path style="fill:#b5b4b4; stroke:none;" d="M159 129L160 130L159 129M45 130L46 131L45 130z"/>
<path style="fill:#747172; stroke:none;" d="M46 130L46 131L49 131L46 130z"/>
<path style="fill:#b5b4b4; stroke:none;" d="M49 130L50 131L49 130M153 130L154 131L153 130z"/>
<path style="fill:#747172; stroke:none;" d="M154 130L154 131L158 131L154 130z"/>
<path style="fill:#4c494a; stroke:none;" d="M73 162L74 163L73 162z"/>
<path style="fill:#b5b4b4; stroke:none;" d="M129 162L130 163L129 162M140 162L141 163L140 162z"/>
<path style="fill:#747172; stroke:none;" d="M63 163L64 164L63 163z"/>
<path style="fill:#b5b4b4; stroke:none;" d="M73 163L74 164L73 163z"/>
<path style="fill:#4c494a; stroke:none;" d="M72 164L73 165L72 164z"/>
<path style="fill:#b5b4b4; stroke:none;" d="M130 164L131 165L130 164M139 164L140 165L139 164z"/>
<path style="fill:#4c494a; stroke:none;" d="M65 165L66 166L65 165z"/>
<path style="fill:#747172; stroke:none;" d="M71 165L72 166L71 165z"/>
<path style="fill:#b5b4b4; stroke:none;" d="M131 165L132 166L131 165M138 165L139 166L138 165M66 166L67 167L66 166z"/>
<path style="fill:#747172; stroke:none;" d="M67.6667 166.333L68.3333 166.667L67.6667 166.333z"/>
<path style="fill:#b5b4b4; stroke:none;" d="M69.6667 166.333L70.3333 166.667L69.6667 166.333M133 166L134 167L133 166z"/>
<path style="fill:#747172; stroke:none;" d="M134.667 166.333L135.333 166.667L134.667 166.333z"/>
<path style="fill:#b5b4b4; stroke:none;" d="M136 166L137 167L136 166z"/>
<path style="fill:#4c494a; stroke:none;" d="M84 189L85 190L84 189M106 189L107 190L106 189z"/>
<path style="fill:#b5b4b4; stroke:none;" d="M84 190L85 191L84 190z"/>
<path style="fill:#4c494a; stroke:none;" d="M94 190L95 191L94 190z"/>
<path style="fill:#747172; stroke:none;" d="M106 190L107 191L106 190z"/>
<path style="fill:#4c494a; stroke:none;" d="M116 190L117 191L116 190M85 191L87 193L85 191z"/>
<path style="fill:#b5b4b4; stroke:none;" d="M94 191L95 192L94 191M116 191L117 192L116 191M85 192L86 193L85 192z"/>
<path style="fill:#747172; stroke:none;" d="M93 192L94 193L93 192z"/>
<path style="fill:#b5b4b4; stroke:none;" d="M107 192L108 193L107 192M115 192L116 193L115 192z"/>
<path style="fill:#747172; stroke:none;" d="M87 193L88 194L87 193z"/>
<path style="fill:#4c494a; stroke:none;" d="M88 193L89 194L88 193z"/>
<path style="fill:#747172; stroke:none;" d="M91 193L92 194L91 193z"/>
<path style="fill:#b5b4b4; stroke:none;" d="M92 193L93 194L92 193z"/>
<path style="fill:#747172; stroke:none;" d="M109 193L110 194L109 193z"/>
<path style="fill:#4c494a; stroke:none;" d="M110 193L111 194L110 193M112 193L113 194L112 193z"/>
<path style="fill:#747172; stroke:none;" d="M113 193L114 194L113 193z"/>
<path style="fill:#b5b4b4; stroke:none;" d="M114 193L115 194L114 193z"/>
</svg>
