<?xml version="1.0" encoding="UTF-8"?>
<!DOCTYPE svg PUBLIC "-//W3C//DTD SVG 1.1//EN" "http://www.w3.org/Graphics/SVG/1.1/DTD/svg11.dtd">
<svg xmlns="http://www.w3.org/2000/svg" version="1.1" width="200px" height="200px" style="shape-rendering:geometricPrecision; text-rendering:geometricPrecision; image-rendering:optimizeQuality; fill-rule:evenodd; clip-rule:evenodd" xmlns:xlink="http://www.w3.org/1999/xlink">
<g><path style="opacity:1" fill="#010101" d="M -0.5,-0.5 C 66.1667,-0.5 132.833,-0.5 199.5,-0.5C 199.5,66.1667 199.5,132.833 199.5,199.5C 132.833,199.5 66.1667,199.5 -0.5,199.5C -0.5,132.833 -0.5,66.1667 -0.5,-0.5 Z"/></g>
<g><path style="opacity:1" fill="#d5d9d8" d="M 60.5,30.5 C 62.7224,30.178 64.5557,30.8446 66,32.5C 66.6667,59.5 66.6667,86.5 66,113.5C 64.0121,116.838 61.6788,117.172 59,114.5C 58.3333,87.1667 58.3333,59.8333 59,32.5C 59.7172,31.9558 60.2172,31.2891 60.5,30.5 Z"/></g>
<g><path style="opacity:1" fill="#d7dad9" d="M 135.5,30.5 C 137.722,30.178 139.556,30.8446 141,32.5C 141.667,59.8333 141.667,87.1667 141,114.5C 138.667,117.167 136.333,117.167 134,114.5C 133.333,87.1667 133.333,59.8333 134,32.5C 134.717,31.9558 135.217,31.2891 135.5,30.5 Z"/></g>
<g><path style="opacity:1" fill="#d6d9d8" d="M 150.5,30.5 C 152.722,30.178 154.556,30.8446 156,32.5C 156.667,47.8333 156.667,63.1667 156,78.5C 153.408,79.9817 151.075,79.6483 149,77.5C 148.333,62.5 148.333,47.5 149,32.5C 149.717,31.9558 150.217,31.2891 150.5,30.5 Z"/></g>
<g><path style="opacity:1" fill="#d6d9d8" d="M 164.5,30.5 C 166.722,30.178 168.556,30.8446 170,32.5C 170.667,36.8333 170.667,41.1667 170,45.5C 167.16,48.3707 164.826,48.0374 163,44.5C 161.966,39.5431 162.466,34.8764 164.5,30.5 Z"/></g>
<g><path style="opacity:1" fill="#d5d7d6" d="M 44.5,30.5 C 47.0444,30.1043 49.2111,30.771 51,32.5C 51.6667,47.5 51.6667,62.5 51,77.5C 48.9251,79.6483 46.5918,79.9817 44,78.5C 43.1831,62.4259 43.3498,46.4259 44.5,30.5 Z"/></g>
<g><path style="opacity:1" fill="#d4d8d7" d="M 29.5,30.5 C 32.0444,30.1043 34.2111,30.771 36,32.5C 36.6667,36.5 36.6667,40.5 36,44.5C 34.1735,48.0374 31.8402,48.3707 29,45.5C 28.2223,40.4158 28.3889,35.4158 29.5,30.5 Z"/></g>
<g><path style="opacity:1" fill="#d9dcdb" d="M 75.5,55.5 C 77.7224,55.178 79.5557,55.8446 81,57.5C 81.6667,86.5 81.6667,115.5 81,144.5C 78.6667,147.167 76.3333,147.167 74,144.5C 73.3333,115.5 73.3333,86.5 74,57.5C 74.7172,56.9558 75.2172,56.2891 75.5,55.5 Z"/></g>
<g><path style="opacity:1" fill="#d9dcdb" d="M 120.5,55.5 C 122.722,55.178 124.556,55.8446 126,57.5C 126.667,86.5 126.667,115.5 126,144.5C 123.667,147.167 121.333,147.167 119,144.5C 118.333,115.5 118.333,86.5 119,57.5C 119.717,56.9558 120.217,56.2891 120.5,55.5 Z"/></g>
<g><path style="opacity:1" fill="#d8dbda" d="M 89.5,95.5 C 92.0444,95.1043 94.2111,95.771 96,97.5C 96.6667,120.5 96.6667,143.5 96,166.5C 93.6667,169.167 91.3333,169.167 89,166.5C 88.1777,142.761 88.3444,119.094 89.5,95.5 Z"/></g>
<g><path style="opacity:1" fill="#dadddc" d="M 104.5,95.5 C 107.079,95.0833 109.246,95.75 111,97.5C 111.667,120.5 111.667,143.5 111,166.5C 108.667,169.167 106.333,169.167 104,166.5C 103.178,142.761 103.344,119.094 104.5,95.5 Z"/></g>
</svg>
