<svg xmlns="http://www.w3.org/2000/svg" xmlns:xlink="http://www.w3.org/1999/xlink" version="1.1" width="1280" height="800" viewBox="0 0 1280 800">
<defs>
<clipPath id="clip_0">
<path transform="matrix(1,0,0,-1,0,800)" d="M0 800H1280V0H0Z"/>
</clipPath>
</defs>
<g id="layer_1" data-name="Layer 1">
<g clip-path="url(#clip_0)">
<path transform="matrix(1,0,0,-1,669.002,148.0332)" d="M0 0C-43.944 0-84.356-24.083-105.268-62.741L-131.026-110.332-134.015-115.87-136.916-121.231-214.698-264.987-341.671-27.669H-285.2L-239.724-112.216-215.864-156.581-191.231-112.643-143.593-27.669H-102.407C-92.47-16.594-80.838-7.28-68.041 0H-159.8L-215.362-99.114-268.667 0H-387.852L-214.833-323.383-118.526-145.376-102.557-115.87-99.567-110.332-81.049-76.108C-80.039-74.244-78.968-72.42-77.843-70.645-65.485-51.116-46.371-37.119-24.511-31.045-18.545-29.384-12.384-28.313-6.094-27.886-3.999-27.744-1.884-27.669 .23-27.669H252.353L226.9-75.118H110.237L102.429-89.787-5.518-292.603H-62.761L31.913-116.778 53.868-75.993H-59.737C-66.218-86.248-75.511-103.655-75.511-103.655H7.552L-109.077-320.271H11.104L126.851-102.781H243.453L298.602 0Z" fill="#870b3d"/>
<path transform="matrix(1,0,0,-1,816.0215,562.1074)" d="M0 0V19.027H83.178V0H51.516V-88.81H31.743V0Z" fill="#ee7917"/>
<path transform="matrix(1,0,0,-1,984.9248,650.915)" d="M0 0H-69.18V107.756H0V88.886H-49.481V63.765H-9.327V44.894H-49.481V18.871H0Z" fill="#ee7917"/>
<path transform="matrix(1,0,0,-1,1017.6514,596.999)" d="M0 0C0-4.859 .942-9.436 2.82-13.719 4.698-18.01 7.253-21.745 10.486-24.924 13.72-28.109 17.481-30.631 21.766-32.481 26.057-34.339 30.632-35.268 35.492-35.268 39.254-35.268 42.792-34.705 46.134-33.573 49.469-32.448 52.566-30.909 55.421-28.95 56.525-28.252 57.712-27.696 58.992-27.296 60.273-26.896 61.609-26.693 63.019-26.693 65.27-26.693 67.188-27.059 68.773-27.784 70.347-28.51 71.817-29.52 73.166-30.828L77.755-35.417C74.949-38.427 71.912-41.131 68.658-43.537 65.392-45.943 61.982-48.004 58.39-49.706 54.804-51.407 51.096-52.708 47.26-53.617 43.423-54.519 39.505-54.966 35.492-54.966 27.873-54.966 20.715-53.521 14.024-50.647 7.328-47.76 1.479-43.843-3.531-38.874-8.554-33.912-12.499-28.103-15.38-21.433-18.261-14.763-19.704-7.618-19.704 0-19.704 5.063-19.061 9.944-17.745 14.628-16.444 19.318-14.587 23.69-12.188 27.751-9.774 31.812-6.9 35.519-3.531 38.874-.176 42.236 3.546 45.104 7.633 47.489 11.72 49.869 16.112 51.713 20.823 53.014 25.548 54.322 30.429 54.966 35.492 54.966 39.505 54.966 43.423 54.519 47.26 53.617 51.096 52.716 54.804 51.414 58.39 49.706 61.982 48.005 65.392 45.944 68.658 43.545 71.912 41.132 74.949 38.427 77.755 35.424L73.166 30.835C71.865 29.527 70.373 28.49 68.692 27.71 67.012 26.937 65.113 26.544 63.019 26.544 60.261 26.544 57.731 27.345 55.421 28.951 52.513 30.91 49.388 32.435 46.06 33.54 42.725 34.638 39.2 35.193 35.492 35.193 30.632 35.193 26.057 34.271 21.766 32.407 17.481 30.558 13.72 28.042 10.486 24.856 7.253 21.671 4.698 17.942 2.82 13.692 .942 9.429 0 4.867 0 0" fill="#ee7917"/>
<path transform="matrix(1,0,0,-1,1209.5254,650.915)" d="M0 0H-19.779V44.67H-72.719V0H-92.423V107.756H-72.719V63.541H-19.779V107.756H0Z" fill="#ee7917"/>
<path transform="matrix(1,0,0,-1,96.8213,618.2012)" d="M0 0C0 0 9.713 22.308 14.546 33.391 19.386 44.467 24.267 55.59 29.174 66.781 30.279 69.336 32.001 71.343 34.326 72.827 36.665 74.305 39.233 75.044 42.04 75.044H54.295L7.293-32.712H-10.601L-57.603 75.044H-45.422C-44.066 75.044-42.724 74.848-41.396 74.44-40.067 74.047-38.833 73.471-37.674 72.719-36.522 71.96-35.491 71.085-34.59 70.082-33.688 69.079-32.99 67.974-32.482 66.781L-3.382 .075-1.674-3.829Z" fill="#ee7917"/>
<path transform="matrix(1,0,0,-1,0,800)" d="M187.437 149.083H167.665V256.839H187.437Z" fill="#ee7917"/>
<path transform="matrix(1,0,0,-1,408.9082,593.2393)" d="M0 0V-45.191C-2.705-47.896-5.64-50.133-8.798-51.881-11.957-53.637-15.265-55.033-18.722-56.063-22.186-57.087-25.785-57.785-29.513-58.165-33.248-58.544-37.023-58.728-40.833-58.728-48.452-58.728-55.596-57.283-62.266-54.403-68.929-51.522-74.772-47.598-79.788-42.636-84.797-37.674-88.749-31.858-91.637-25.194-94.511-18.519-95.955-11.381-95.955-3.762-95.955 1.302-95.304 6.183-94.002 10.873-92.694 15.557-90.844 19.929-88.431 23.989-86.031 28.057-83.144 31.764-79.788 35.119-76.426 38.481-72.711 41.349-68.617 43.728-64.537 46.114-60.145 47.951-55.46 49.259-50.777 50.561-45.896 51.211-40.833 51.211-36.82 51.211-32.889 50.757-29.025 49.855-25.168 48.961-21.46 47.652-17.895 45.944-14.336 44.243-10.934 42.189-7.673 39.783-4.413 37.376-1.383 34.665 1.424 31.662L-3.084 27.073C-4.487 25.616-6.005 24.538-7.632 23.84-9.266 23.135-11.13 22.782-13.231 22.782-16.044 22.782-18.6 23.582-20.904 25.195-23.765 27.147-26.856 28.673-30.198 29.785-33.526 30.883-37.078 31.438-40.833 31.438-45.646 31.438-50.208 30.51-54.519 28.652-58.836 26.795-62.591 24.28-65.804 21.095-69.004 17.916-71.552 14.188-73.43 9.931-75.314 5.667-76.257 1.105-76.257-3.762-76.257-8.717-75.274-13.346-73.315-17.637-71.363-21.914-68.732-25.649-65.425-28.835-62.117-32.027-58.267-34.515-53.881-36.318-49.496-38.121-44.9-39.029-40.087-39.029-37.722-38.976-35.342-38.778-32.936-38.426-30.882-38.121-28.679-37.653-26.32-36.996-23.968-36.339-21.806-35.417-19.854-34.217V-19.026C-21.962-18.973-24.022-18.938-26.056-18.911-28.083-18.884-29.893-18.498-31.472-17.745-33.051-16.993-34.319-15.726-35.268-13.949-36.224-12.167-36.698-9.523-36.698-6.019V0Z" fill="#ee7917"/>
<path transform="matrix(1,0,0,-1,0,800)" d="M460.518 149.083H440.739V256.839H460.518Z" fill="#ee7917"/>
<path transform="matrix(1,0,0,-1,512.7686,570.2949)" d="M0 0V-80.622H-19.698V27.141H-2.332C.075 27.141 2.189 26.788 4.02 26.09 5.85 25.385 7.294 24.307 8.344 22.856 15.868 12.174 56.247-44.907 56.247-44.907V27.141H75.952V-80.622H57.677Z" fill="#ee7917"/>
<path transform="matrix(1,0,0,-1,0,800)" d="M641.039 149.083H621.267V256.839H641.039Z" fill="#ee7917"/>
<path transform="matrix(1,0,0,-1,722.4814,543.1553)" d="M0 0H-17.82L-64.896-107.756H-52.642C-51.279-107.756-49.943-107.56-48.615-107.159-47.293-106.753-46.046-106.19-44.887-105.472-43.734-104.739-42.718-103.872-41.81-102.876-40.901-101.865-40.21-100.761-39.701-99.561L-33.391-84.974H-33.37L-21.976-58.741H-21.881L-8.907-28.639 6.846-65.194H-2.108C-8.799-65.194-14.858-69.174-17.529-75.314L-21.719-84.974H15.569L21.962-99.561C23.114-102.116 24.843-104.123 27.147-105.573 29.451-107.03 32.014-107.756 34.82-107.756H47.075Z" fill="#ee7917"/>
<path transform="matrix(1,0,0,-1,261.0317,592.33206)" d="M0 0C1.905 0 3.721 .407 5.45 1.207 7.185 2.007 8.683 3.084 9.964 4.434 11.246 5.789 12.255 7.354 13.001 9.138 13.76 10.913 14.133 12.757 14.133 14.662 14.133 16.614 13.76 18.484 13.001 20.261 12.255 22.044 11.246 23.603 9.964 24.965 8.683 26.313 7.185 27.392 5.45 28.191 3.721 28.991 1.905 29.398 0 29.398H-21.352V0ZM-21.352-58.572H-41.05V49.171H-.596C4.609 49.171 9.334 48.194 13.57 46.235 17.807 44.283 21.433 41.688 24.436 38.461 27.446 35.221 29.771 31.547 31.425 27.446 33.079 23.331 33.906 19.095 33.906 14.736 33.906 11.578 33.479 8.493 32.631 5.49 31.777 2.481 30.523-.353 28.869-3.003 27.222-5.667 25.188-8.106 22.782-10.337 20.376-12.567 17.624-14.465 14.513-16.011 19.772-23.182 25.012-30.285 30.225-37.328 35.438-44.371 40.697-51.454 46.012-58.572H30.598C29.547-58.572 28.32-58.342 26.917-57.894 25.514-57.446 24.043-56.729 22.518-55.752 20.993-54.77 19.414-53.509 17.78-51.956 16.153-50.404 14.56-48.492 13.001-46.235L-6.616-19.772H-21.352Z" fill="#ee7917"/>
<path transform="matrix(1,0,0,-1,1231.8135,642.667)" d="M0 0C1.261 0 1.878 .583 1.878 1.661 1.878 2.82 1.18 3.247-.055 3.247H-2.014V0ZM1.18-1.023 3.613-4.494C3.722-4.725 3.613-4.771 3.362-4.771H2.508C2.339-4.771 2.21-4.725 2.108-4.575L-.278-1.152H-2.014V-4.575C-2.014-4.725-2.095-4.771-2.264-4.771H-3.146C-3.349-4.771-3.396-4.725-3.396-4.575V4.203C-3.396 4.379-3.321 4.427-3.146 4.427H.021C1.552 4.427 3.22 3.823 3.22 1.661 3.22 .108 2.236-.752 1.18-1.023M-.149-8.473C4.42-8.473 8.141-4.771 8.141-.169 8.141 4.379 4.42 8.094-.149 8.094-4.752 8.094-8.453 4.379-8.453-.169-8.453-4.771-4.752-8.473-.149-8.473M-.149 8.954C4.874 8.954 8.968 4.854 8.968-.169 8.968-5.226 4.874-9.3-.149-9.3-5.213-9.3-9.279-5.226-9.279-.169-9.279 4.854-5.213 8.954-.149 8.954" fill="#ee7917"/>
</g>
</g>
</svg>
