<?xml version="1.0" standalone="no"?>
<!DOCTYPE svg PUBLIC "-//W3C//DTD SVG 20010904//EN"
 "http://www.w3.org/TR/2001/REC-SVG-20010904/DTD/svg10.dtd">
<svg version="1.0" xmlns="http://www.w3.org/2000/svg"
 width="856.000000pt" height="454.000000pt" viewBox="0 0 856.000000 454.000000"
 preserveAspectRatio="xMidYMid meet">

<g transform="translate(0.000000,454.000000) scale(0.100000,-0.100000)"
fill="#000000" stroke="none">
<path d="M0 2275 l0 -2265 4275 0 4275 0 0 2265 0 2265 -4275 0 -4275 0 0
-2265z m3050 1270 c84 -157 158 -293 165 -301 10 -14 39 33 180 285 l169 301
285 0 284 0 -69 -49 c-38 -27 -87 -67 -109 -90 l-39 -41 -126 0 -126 0 -219
-390 c-120 -214 -221 -390 -224 -390 -3 0 -100 176 -216 390 l-210 390 -167 0
c-93 0 -168 -3 -168 -6 0 -3 172 -327 382 -720 295 -552 385 -711 393 -702 7
7 157 283 335 613 178 330 343 630 367 667 88 134 233 241 408 299 l70 24 983
3 c540 1 982 -1 982 -5 0 -4 -75 -148 -167 -320 l-168 -313 -360 0 -360 -1
-351 -662 -352 -662 -372 -3 c-297 -2 -371 0 -367 10 3 7 163 306 355 663
l350 650 -252 5 -253 5 46 82 46 83 353 0 353 0 -17 -32 c-9 -18 -169 -316
-356 -661 -186 -346 -338 -631 -338 -633 0 -3 78 -3 172 -2 l173 3 355 667
355 668 360 2 360 3 72 135 72 135 -807 3 c-532 1 -824 -1 -858 -8 -109 -23
-235 -101 -312 -193 -20 -25 -224 -391 -452 -813 -228 -422 -420 -773 -425
-781 -8 -11 -129 207 -510 919 -274 513 -514 961 -533 996 l-34 62 370 0 369
0 153 -285z m-2271 -2156 c37 -13 50 -36 162 -296 40 -95 76 -173 79 -173 3 0
47 97 99 216 52 119 101 225 110 235 20 25 138 41 129 18 -3 -8 -68 -157 -144
-331 l-138 -318 -56 0 -55 0 -139 318 c-76 174 -141 323 -143 330 -7 16 52 16
96 1z m801 -319 l0 -330 -55 0 -55 0 0 330 0 330 55 0 55 0 0 -330z m540 311
c51 -27 100 -85 115 -136 24 -79 6 -145 -55 -206 l-48 -48 89 -121 c49 -66 89
-123 89 -125 0 -12 -104 -4 -130 10 -16 8 -63 62 -106 120 l-77 105 -43 0 -44
0 0 -120 0 -120 -60 0 -60 0 0 331 0 331 153 -4 c98 -3 161 -9 177 -17z m690
0 c58 -22 139 -80 140 -99 0 -13 -57 -52 -78 -52 -7 0 -38 12 -69 26 -157 75
-324 -25 -323 -193 1 -144 161 -249 305 -201 40 13 40 14 40 63 0 50 0 50 -35
53 -49 5 -60 18 -60 68 l0 44 110 0 110 0 0 -140 0 -140 -47 -30 c-58 -37 -95
-45 -203 -45 -70 1 -95 5 -141 27 -227 104 -265 408 -72 567 84 69 221 91 323
52z m450 -311 l0 -330 -55 0 -55 0 0 330 0 330 55 0 55 0 0 -330z m367 308
c10 -9 81 -107 158 -217 77 -110 143 -200 148 -201 4 0 7 99 7 220 l0 220 55
0 55 0 0 -330 0 -330 -54 0 -55 0 -172 240 c-95 132 -176 240 -181 240 -4 0
-8 -108 -8 -240 l0 -240 -55 0 -55 0 0 331 0 331 69 -4 c47 -2 76 -9 88 -20z
m743 -308 l0 -330 -55 0 -55 0 0 330 0 330 55 0 55 0 0 -330z m645 9 c77 -177
142 -325 143 -330 2 -5 -21 -9 -50 -9 -63 0 -83 16 -116 93 l-21 47 -110 0
c-61 0 -111 2 -111 4 0 2 7 20 15 39 19 47 50 67 102 67 23 0 44 3 46 8 2 4
-18 56 -44 117 l-48 110 -19 -45 c-172 -398 -180 -415 -206 -430 -12 -6 -43
-10 -68 -8 l-45 3 133 305 c73 168 138 315 144 328 8 19 17 22 62 22 l53 0
140 -321z m945 261 l0 -60 -95 0 -95 0 0 -270 0 -270 -60 0 -60 0 0 270 0 270
-100 0 -100 0 0 60 0 60 255 0 255 0 0 -60z m530 0 l0 -60 -155 0 -155 0 0
-75 0 -75 125 0 125 0 0 -60 0 -60 -125 0 -125 0 0 -80 0 -80 155 0 155 0 0
-55 0 -55 -210 0 -210 0 0 330 0 330 210 0 210 0 0 -60z m560 30 c24 -12 62
-37 83 -54 l39 -31 -27 -22 c-42 -36 -67 -38 -131 -7 -72 34 -141 36 -199 6
-110 -56 -153 -174 -104 -282 27 -60 45 -79 104 -106 65 -31 125 -31 193 1 67
31 93 31 129 1 l28 -24 -25 -27 c-13 -14 -54 -40 -89 -58 -58 -28 -75 -32
-146 -32 -98 1 -167 29 -234 96 -172 172 -106 470 121 551 74 26 195 21 258
-12z m372 -107 l3 -138 163 -3 162 -2 0 140 0 140 60 0 60 0 0 -330 0 -330
-60 0 -60 0 0 135 0 135 -165 0 -165 0 0 -135 0 -135 -60 0 -60 0 0 330 0 330
60 0 59 0 3 -137z m601 -430 c-20 -4 -23 -11 -25 -51 l-2 -47 -3 47 c-3 39 -8
47 -26 51 -12 2 1 4 28 4 28 0 40 -2 28 -4z m79 -30 l15 -38 16 38 c23 53 37
47 35 -15 l-1 -53 -6 45 -6 45 -18 -45 -19 -45 -21 45 -22 45 -6 -45 -6 -45
-1 53 c-2 64 18 71 40 15z"/>
<path d="M1910 1185 l0 -95 66 0 c121 0 179 55 142 135 -18 39 -57 55 -138 55
l-70 0 0 -95z"/>
</g>
</svg>
