<svg version="1.1" id="Layer_1" xmlns="http://www.w3.org/2000/svg" xmlns:xlink="http://www.w3.org/1999/xlink" x="0px" y="0px"
	 width="100%" viewBox="0 0 319 158" enable-background="new 0 0 319 158" xml:space="preserve">
<path fill="#872042" opacity="1.000000" stroke="none" 
	d="
M320.000000,2.000000 
	C320.000000,53.687561 320.000000,105.375122 319.532166,157.533051 
	C213.042862,158.002274 107.021431,158.001129 1.000000,158.000000 
	C1.000000,106.312439 1.000000,54.624878 1.467851,2.466945 
	C107.957138,1.997717 213.978561,1.998858 320.000000,2.000000 
M313.723907,7.211559 
	C313.453430,7.276851 313.182983,7.342142 312.017700,7.668193 
	C269.022858,7.686978 226.027908,7.778722 183.033279,7.695285 
	C159.817581,7.650232 143.029846,17.928026 132.091843,38.279896 
	C117.294998,65.811745 102.377686,93.278893 87.467781,120.749771 
	C86.623024,122.306213 85.377960,123.645393 83.914352,125.636459 
	C64.858086,89.969345 46.333809,55.297939 27.501591,20.050167 
	C32.646374,20.050167 37.023087,20.584562 41.218388,19.939367 
	C50.061565,18.579376 54.656609,22.092180 58.501801,30.218576 
	C66.071960,46.217323 75.077538,61.536873 83.770714,77.659203 
	C84.939041,75.796806 85.854782,74.466545 86.641022,73.063705 
	C94.446335,59.137062 102.856155,45.500851 109.789368,31.151642 
	C114.061310,22.310263 119.346802,18.174335 129.159409,19.923824 
	C131.345886,20.313650 134.282913,19.766531 136.064774,18.506191 
	C140.456528,15.399841 144.378006,11.628615 148.954712,7.727367 
	C136.066772,7.727367 123.601105,7.633634 111.141434,7.863853 
	C109.809464,7.888463 108.047585,9.535774 107.272385,10.883227 
	C100.803848,22.126804 94.519753,33.476486 88.180489,44.794426 
	C86.948822,46.993420 85.719276,49.193600 84.113899,52.063313 
	C76.452255,37.869064 69.169090,24.639585 62.197224,11.248034 
	C60.716686,8.404220 59.033360,7.615192 56.026897,7.658560 
	C44.863739,7.819588 33.696865,7.722974 22.531384,7.723080 
	C17.438814,7.723129 12.346244,7.723089 6.735640,7.723089 
	C32.752323,56.344360 58.387512,104.252670 84.308853,152.695755 
	C85.824768,149.974106 86.894554,148.100479 87.921097,146.203430 
	C106.513939,111.843765 125.174072,77.520203 143.657501,43.101753 
	C151.980606,27.603062 165.196701,20.276236 182.273132,20.137997 
	C217.933670,19.849310 253.598175,20.050348 289.261047,20.050207 
	C290.493835,20.050201 291.726654,20.050205 294.136749,20.050205 
	C289.702057,27.660345 285.838409,34.290512 281.307129,40.438511 
	C264.925995,40.316620 248.544922,40.179714 232.163574,40.124897 
	C231.471085,40.122581 230.776047,40.882656 229.890335,41.935261 
	C213.357224,72.922005 196.848587,103.921906 180.223068,134.858963 
	C179.335754,136.510071 177.521835,138.735504 176.039444,138.814224 
	C168.472351,139.216080 160.872406,138.999832 152.563507,138.999832 
	C170.077820,106.409798 187.251846,74.452965 204.779633,41.837887 
	C187.812485,41.837887 171.691055,41.818913 155.570038,41.892258 
	C154.738281,41.896042 153.563431,42.472874 153.138763,43.152092 
	C151.006714,46.562004 149.071259,50.094833 146.646591,54.315937 
	C159.593445,54.315937 171.468216,54.315937 183.945877,54.315937 
	C166.471512,86.798332 149.292160,118.732323 131.777939,151.288803 
	C148.817795,151.288803 165.101303,151.167725 181.380188,151.387665 
	C184.767868,151.433426 186.376373,150.213394 187.859741,147.403381 
	C202.129135,120.372147 216.496262,93.392372 230.895096,66.429741 
	C233.122803,62.258251 235.652542,58.248055 238.728561,54.609493 
	C255.090744,54.718616 271.452881,54.842037 287.815247,54.888500 
	C288.524963,54.890518 289.236755,54.185024 290.139618,53.152668 
	C297.751129,39.028400 305.375488,24.911001 312.945892,10.764742 
	C313.461517,9.801236 313.572388,8.621132 313.723907,7.211559 
M177.466339,6.485279 
	C177.466339,6.485279 177.515060,6.466753 177.466339,6.485279 
M203.503418,40.459736 
	C203.503418,40.459736 203.525360,40.507057 203.503418,40.459736 
z"/>
<path fill="#98445F" opacity="1.000000" stroke="none" 
	d="
M320.000000,1.500000 
	C213.978561,1.998858 107.957138,1.997717 1.467851,1.998288 
	C2.500000,1.666667 3.999839,1.042464 5.500023,1.041631 
	C89.833336,0.994826 174.166672,1.000000 258.500000,1.000000 
	C279.000000,1.000000 299.500000,1.000000 320.000000,1.500000 
z"/>
<path fill="#98445F" opacity="1.000000" stroke="none" 
	d="
M1.000000,158.500000 
	C107.021431,158.001129 213.042862,158.002274 319.532166,158.001709 
	C318.500000,158.333328 317.000153,158.957520 315.499969,158.958359 
	C231.333344,159.005173 147.166702,159.000000 63.000046,159.000000 
	C42.333363,159.000000 21.666681,159.000000 1.000000,158.500000 
z"/>
<path fill="#FDFCFC" opacity="1.000000" stroke="none" 
	d="
M238.042603,54.163269 
	C235.652542,58.248055 233.122803,62.258251 230.895096,66.429741 
	C216.496262,93.392372 202.129135,120.372147 187.859741,147.403381 
	C186.376373,150.213394 184.767868,151.433426 181.380188,151.387665 
	C165.101303,151.167725 148.817795,151.288803 131.777939,151.288803 
	C149.292160,118.732323 166.471512,86.798332 183.945877,54.315937 
	C171.468216,54.315937 159.593445,54.315937 146.646591,54.315937 
	C149.071259,50.094833 151.006714,46.562004 153.138763,43.152092 
	C153.563431,42.472874 154.738281,41.896042 155.570038,41.892258 
	C171.691055,41.818913 187.812485,41.837887 204.779633,41.837887 
	C187.251846,74.452965 170.077820,106.409798 152.563507,138.999832 
	C160.872406,138.999832 168.472351,139.216080 176.039444,138.814224 
	C177.521835,138.735504 179.335754,136.510071 180.223068,134.858963 
	C196.848587,103.921906 213.357224,72.922005 230.447723,41.574078 
	C247.994980,41.115494 264.984863,41.018093 281.974762,40.920685 
	C285.838409,34.290512 289.702057,27.660345 294.136749,20.050205 
	C291.726654,20.050205 290.493835,20.050201 289.261047,20.050207 
	C253.598175,20.050348 217.933670,19.849310 182.273132,20.137997 
	C165.196701,20.276236 151.980606,27.603062 143.657501,43.101753 
	C125.174072,77.520203 106.513939,111.843765 87.921097,146.203430 
	C86.894554,148.100479 85.824768,149.974106 84.308853,152.695755 
	C58.387512,104.252670 32.752323,56.344360 6.735640,7.723089 
	C12.346244,7.723089 17.438814,7.723129 22.531384,7.723080 
	C33.696865,7.722974 44.863739,7.819588 56.026897,7.658560 
	C59.033360,7.615192 60.716686,8.404220 62.197224,11.248034 
	C69.169090,24.639585 76.452255,37.869064 84.113899,52.063313 
	C85.719276,49.193600 86.948822,46.993420 88.180489,44.794426 
	C94.519753,33.476486 100.803848,22.126804 107.272385,10.883227 
	C108.047585,9.535774 109.809464,7.888463 111.141434,7.863853 
	C123.601105,7.633634 136.066772,7.727367 148.954712,7.727367 
	C144.378006,11.628615 140.456528,15.399841 136.064774,18.506191 
	C134.282913,19.766531 131.345886,20.313650 129.159409,19.923824 
	C119.346802,18.174335 114.061310,22.310263 109.789368,31.151642 
	C102.856155,45.500851 94.446335,59.137062 86.641022,73.063705 
	C85.854782,74.466545 84.939041,75.796806 83.770714,77.659203 
	C75.077538,61.536873 66.071960,46.217323 58.501801,30.218576 
	C54.656609,22.092180 50.061565,18.579376 41.218388,19.939367 
	C37.023087,20.584562 32.646374,20.050167 27.501591,20.050167 
	C46.333809,55.297939 64.858086,89.969345 83.914352,125.636459 
	C85.377960,123.645393 86.623024,122.306213 87.467781,120.749771 
	C102.377686,93.278893 117.294998,65.811745 132.091843,38.279896 
	C143.029846,17.928026 159.817581,7.650232 183.033279,7.695285 
	C226.027908,7.778722 269.022858,7.686978 312.695068,7.641295 
	C313.538788,7.590186 313.705170,7.565975 313.871521,7.541764 
	C313.572388,8.621132 313.461517,9.801236 312.945892,10.764742 
	C305.375488,24.911001 297.751129,39.028400 289.580231,53.523384 
	C272.028107,53.983818 255.035355,54.073544 238.042603,54.163269 
z"/>
<path fill="#7F0032" opacity="1.000000" stroke="none" 
	d="
M281.640930,40.679600 
	C264.984863,41.018093 247.994980,41.115494 230.543640,41.250229 
	C230.776047,40.882656 231.471085,40.122581 232.163574,40.124897 
	C248.544922,40.179714 264.925995,40.316620 281.640930,40.679600 
z"/>
<path fill="#7F0032" opacity="1.000000" stroke="none" 
	d="
M238.385590,54.386383 
	C255.035355,54.073544 272.028107,53.983818 289.484192,53.851601 
	C289.236755,54.185024 288.524963,54.890518 287.815247,54.888500 
	C271.452881,54.842037 255.090744,54.718616 238.385590,54.386383 
z"/>
<path fill="#83123A" opacity="1.000000" stroke="none" 
	d="
M177.490692,6.476016 
	C177.515060,6.466753 177.466339,6.485279 177.490692,6.476016 
z"/>
<path fill="#83123A" opacity="1.000000" stroke="none" 
	d="
M313.797729,7.376661 
	C313.705170,7.565975 313.538788,7.590186 313.142456,7.510916 
	C313.182983,7.342142 313.453430,7.276851 313.797729,7.376661 
z"/>
<path fill="#83123A" opacity="1.000000" stroke="none" 
	d="
M203.514389,40.483398 
	C203.525360,40.507057 203.503418,40.459736 203.514389,40.483398 
z"/>
</svg>